M48
;DRILL file {Pcbnew (2013-mar-13)-testing} date Thu 12 Dec 2013 18:21:09 CET
;FORMAT={-:-/ absolute / metric / decimal}
FMAT,2
METRIC,TZ
T1C0.800
T2C1.000
%
G90
G05
M71
T1
X108.585Y-64.135
X108.585Y-66.675
X109.22Y-55.88
X109.22Y-58.42
X109.22Y-71.12
X109.22Y-74.295
X109.22Y-77.47
X109.22Y-81.28
X109.22Y-83.82
X109.22Y-86.36
X109.22Y-88.9
X109.22Y-97.79
X111.125Y-64.135
X111.125Y-66.675
X111.76Y-55.88
X111.76Y-58.42
X111.76Y-71.12
X111.76Y-74.295
X111.76Y-77.47
X111.76Y-81.28
X111.76Y-88.9
X113.665Y-64.135
X113.665Y-66.675
X114.3Y-55.88
X114.3Y-58.42
X114.3Y-71.12
X114.3Y-74.295
X114.3Y-77.47
X114.3Y-81.28
X114.3Y-88.9
X116.205Y-64.135
X116.205Y-66.675
X116.84Y-55.88
X116.84Y-58.42
X116.84Y-71.12
X116.84Y-74.295
X116.84Y-77.47
X116.84Y-81.28
X116.84Y-88.9
X118.745Y-64.135
X118.745Y-66.675
X118.745Y-88.9
X119.38Y-55.88
X119.38Y-58.42
X119.38Y-71.12
X119.38Y-74.295
X119.38Y-77.47
X119.38Y-81.28
X121.285Y-64.135
X121.285Y-66.675
X121.92Y-55.88
X121.92Y-58.42
X121.92Y-71.12
X121.92Y-74.295
X121.92Y-77.47
X121.92Y-81.28
X123.825Y-64.135
X123.825Y-66.675
X124.46Y-55.88
X124.46Y-58.42
X124.46Y-71.12
X124.46Y-74.295
X124.46Y-77.47
X124.46Y-81.28
X126.365Y-64.135
X126.365Y-66.675
X126.365Y-88.9
X127.Y-55.88
X127.Y-58.42
X127.Y-71.12
X127.Y-74.295
X127.Y-77.47
X127.Y-81.28
X127.Y-95.25
X127.Y-97.79
X130.175Y-50.8
X130.175Y-53.34
X130.175Y-55.88
X130.175Y-58.42
X130.175Y-60.96
X130.175Y-63.5
X130.175Y-66.04
X130.175Y-68.58
X130.175Y-71.12
X130.175Y-73.66
X130.175Y-76.2
X130.175Y-78.74
X130.175Y-81.28
X130.175Y-83.82
X130.175Y-86.36
X130.175Y-88.9
X130.175Y-91.44
X145.415Y-50.8
X145.415Y-53.34
X145.415Y-55.88
X145.415Y-58.42
X145.415Y-60.96
X145.415Y-63.5
X145.415Y-66.04
X145.415Y-68.58
X145.415Y-71.12
X145.415Y-73.66
X145.415Y-76.2
X145.415Y-78.74
X145.415Y-81.28
X145.415Y-83.82
X145.415Y-86.36
X145.415Y-88.9
X145.415Y-91.44
X145.415Y-95.25
T2
X110.49Y-40.005
X113.538Y-105.283
X119.38Y-38.735
X119.38Y-41.275
X119.38Y-103.505
X119.38Y-106.045
X121.92Y-38.735
X121.92Y-41.275
X121.92Y-103.505
X121.92Y-106.045
X124.46Y-38.735
X124.46Y-41.275
X124.46Y-103.505
X124.46Y-106.045
X127.Y-38.735
X127.Y-41.275
X127.Y-103.505
X127.Y-106.045
X129.54Y-38.735
X129.54Y-41.275
X129.54Y-103.505
X129.54Y-106.045
X132.08Y-38.735
X132.08Y-41.275
X132.08Y-103.505
X132.08Y-106.045
X134.62Y-38.735
X134.62Y-41.275
X134.62Y-103.505
X134.62Y-106.045
X137.16Y-38.735
X137.16Y-41.275
X137.16Y-103.505
X137.16Y-106.045
X143.002Y-105.283
X146.05Y-40.005
T0
M30
