G04 (created by PCBNEW (2013-mar-13)-testing) date Thu 12 Dec 2013 18:21:10 CET*
%MOIN*%
G04 Gerber Fmt 3.4, Leading zero omitted, Abs format*
%FSLAX34Y34*%
G01*
G70*
G90*
G04 APERTURE LIST*
%ADD10C,0.005000*%
%ADD11C,0.001000*%
%ADD12C,0.007874*%
%ADD13C,0.011811*%
G04 APERTURE END LIST*
G54D10*
G54D11*
X59750Y-43750D02*
X59750Y-45250D01*
X40500Y-43750D02*
X40500Y-45250D01*
X40500Y-13250D02*
X41000Y-13250D01*
X40500Y-43750D02*
X40500Y-13250D01*
X59750Y-45250D02*
X40500Y-45250D01*
X59750Y-13250D02*
X59750Y-43750D01*
X41000Y-13250D02*
X59750Y-13250D01*
G54D12*
X42592Y-25092D02*
X42907Y-25407D01*
X42907Y-25092D02*
X42592Y-25407D01*
X42592Y-26092D02*
X42907Y-26407D01*
X42907Y-26092D02*
X42592Y-26407D01*
X42842Y-21842D02*
X43157Y-22157D01*
X43157Y-21842D02*
X42842Y-22157D01*
X42842Y-22842D02*
X43157Y-23157D01*
X43157Y-22842D02*
X42842Y-23157D01*
X42842Y-27842D02*
X43157Y-28157D01*
X43157Y-27842D02*
X42842Y-28157D01*
X42842Y-29092D02*
X43157Y-29407D01*
X43157Y-29092D02*
X42842Y-29407D01*
X42842Y-30342D02*
X43157Y-30657D01*
X43157Y-30342D02*
X42842Y-30657D01*
X42842Y-31842D02*
X43157Y-32157D01*
X43157Y-31842D02*
X42842Y-32157D01*
X42842Y-32842D02*
X43157Y-33157D01*
X43157Y-32842D02*
X42842Y-33157D01*
X42842Y-33842D02*
X43157Y-34157D01*
X43157Y-33842D02*
X42842Y-34157D01*
X42842Y-34842D02*
X43157Y-35157D01*
X43157Y-34842D02*
X42842Y-35157D01*
X42842Y-38342D02*
X43157Y-38657D01*
X43157Y-38342D02*
X42842Y-38657D01*
X43592Y-25092D02*
X43907Y-25407D01*
X43907Y-25092D02*
X43592Y-25407D01*
X43592Y-26092D02*
X43907Y-26407D01*
X43907Y-26092D02*
X43592Y-26407D01*
X43842Y-21842D02*
X44157Y-22157D01*
X44157Y-21842D02*
X43842Y-22157D01*
X43842Y-22842D02*
X44157Y-23157D01*
X44157Y-22842D02*
X43842Y-23157D01*
X43842Y-27842D02*
X44157Y-28157D01*
X44157Y-27842D02*
X43842Y-28157D01*
X43842Y-29092D02*
X44157Y-29407D01*
X44157Y-29092D02*
X43842Y-29407D01*
X43842Y-30342D02*
X44157Y-30657D01*
X44157Y-30342D02*
X43842Y-30657D01*
X43842Y-31842D02*
X44157Y-32157D01*
X44157Y-31842D02*
X43842Y-32157D01*
X43842Y-34842D02*
X44157Y-35157D01*
X44157Y-34842D02*
X43842Y-35157D01*
X44592Y-25092D02*
X44907Y-25407D01*
X44907Y-25092D02*
X44592Y-25407D01*
X44592Y-26092D02*
X44907Y-26407D01*
X44907Y-26092D02*
X44592Y-26407D01*
X44842Y-21842D02*
X45157Y-22157D01*
X45157Y-21842D02*
X44842Y-22157D01*
X44842Y-22842D02*
X45157Y-23157D01*
X45157Y-22842D02*
X44842Y-23157D01*
X44842Y-27842D02*
X45157Y-28157D01*
X45157Y-27842D02*
X44842Y-28157D01*
X44842Y-29092D02*
X45157Y-29407D01*
X45157Y-29092D02*
X44842Y-29407D01*
X44842Y-30342D02*
X45157Y-30657D01*
X45157Y-30342D02*
X44842Y-30657D01*
X44842Y-31842D02*
X45157Y-32157D01*
X45157Y-31842D02*
X44842Y-32157D01*
X44842Y-34842D02*
X45157Y-35157D01*
X45157Y-34842D02*
X44842Y-35157D01*
X45592Y-25092D02*
X45907Y-25407D01*
X45907Y-25092D02*
X45592Y-25407D01*
X45592Y-26092D02*
X45907Y-26407D01*
X45907Y-26092D02*
X45592Y-26407D01*
X45842Y-21842D02*
X46157Y-22157D01*
X46157Y-21842D02*
X45842Y-22157D01*
X45842Y-22842D02*
X46157Y-23157D01*
X46157Y-22842D02*
X45842Y-23157D01*
X45842Y-27842D02*
X46157Y-28157D01*
X46157Y-27842D02*
X45842Y-28157D01*
X45842Y-29092D02*
X46157Y-29407D01*
X46157Y-29092D02*
X45842Y-29407D01*
X45842Y-30342D02*
X46157Y-30657D01*
X46157Y-30342D02*
X45842Y-30657D01*
X45842Y-31842D02*
X46157Y-32157D01*
X46157Y-31842D02*
X45842Y-32157D01*
X45842Y-34842D02*
X46157Y-35157D01*
X46157Y-34842D02*
X45842Y-35157D01*
X46592Y-25092D02*
X46907Y-25407D01*
X46907Y-25092D02*
X46592Y-25407D01*
X46592Y-26092D02*
X46907Y-26407D01*
X46907Y-26092D02*
X46592Y-26407D01*
X46592Y-34842D02*
X46907Y-35157D01*
X46907Y-34842D02*
X46592Y-35157D01*
X46842Y-21842D02*
X47157Y-22157D01*
X47157Y-21842D02*
X46842Y-22157D01*
X46842Y-22842D02*
X47157Y-23157D01*
X47157Y-22842D02*
X46842Y-23157D01*
X46842Y-27842D02*
X47157Y-28157D01*
X47157Y-27842D02*
X46842Y-28157D01*
X46842Y-29092D02*
X47157Y-29407D01*
X47157Y-29092D02*
X46842Y-29407D01*
X46842Y-30342D02*
X47157Y-30657D01*
X47157Y-30342D02*
X46842Y-30657D01*
X46842Y-31842D02*
X47157Y-32157D01*
X47157Y-31842D02*
X46842Y-32157D01*
X47592Y-25092D02*
X47907Y-25407D01*
X47907Y-25092D02*
X47592Y-25407D01*
X47592Y-26092D02*
X47907Y-26407D01*
X47907Y-26092D02*
X47592Y-26407D01*
X47842Y-21842D02*
X48157Y-22157D01*
X48157Y-21842D02*
X47842Y-22157D01*
X47842Y-22842D02*
X48157Y-23157D01*
X48157Y-22842D02*
X47842Y-23157D01*
X47842Y-27842D02*
X48157Y-28157D01*
X48157Y-27842D02*
X47842Y-28157D01*
X47842Y-29092D02*
X48157Y-29407D01*
X48157Y-29092D02*
X47842Y-29407D01*
X47842Y-30342D02*
X48157Y-30657D01*
X48157Y-30342D02*
X47842Y-30657D01*
X47842Y-31842D02*
X48157Y-32157D01*
X48157Y-31842D02*
X47842Y-32157D01*
X48592Y-25092D02*
X48907Y-25407D01*
X48907Y-25092D02*
X48592Y-25407D01*
X48592Y-26092D02*
X48907Y-26407D01*
X48907Y-26092D02*
X48592Y-26407D01*
X48842Y-21842D02*
X49157Y-22157D01*
X49157Y-21842D02*
X48842Y-22157D01*
X48842Y-22842D02*
X49157Y-23157D01*
X49157Y-22842D02*
X48842Y-23157D01*
X48842Y-27842D02*
X49157Y-28157D01*
X49157Y-27842D02*
X48842Y-28157D01*
X48842Y-29092D02*
X49157Y-29407D01*
X49157Y-29092D02*
X48842Y-29407D01*
X48842Y-30342D02*
X49157Y-30657D01*
X49157Y-30342D02*
X48842Y-30657D01*
X48842Y-31842D02*
X49157Y-32157D01*
X49157Y-31842D02*
X48842Y-32157D01*
X49592Y-25092D02*
X49907Y-25407D01*
X49907Y-25092D02*
X49592Y-25407D01*
X49592Y-26092D02*
X49907Y-26407D01*
X49907Y-26092D02*
X49592Y-26407D01*
X49592Y-34842D02*
X49907Y-35157D01*
X49907Y-34842D02*
X49592Y-35157D01*
X49842Y-21842D02*
X50157Y-22157D01*
X50157Y-21842D02*
X49842Y-22157D01*
X49842Y-22842D02*
X50157Y-23157D01*
X50157Y-22842D02*
X49842Y-23157D01*
X49842Y-27842D02*
X50157Y-28157D01*
X50157Y-27842D02*
X49842Y-28157D01*
X49842Y-29092D02*
X50157Y-29407D01*
X50157Y-29092D02*
X49842Y-29407D01*
X49842Y-30342D02*
X50157Y-30657D01*
X50157Y-30342D02*
X49842Y-30657D01*
X49842Y-31842D02*
X50157Y-32157D01*
X50157Y-31842D02*
X49842Y-32157D01*
X49842Y-37342D02*
X50157Y-37657D01*
X50157Y-37342D02*
X49842Y-37657D01*
X49842Y-38342D02*
X50157Y-38657D01*
X50157Y-38342D02*
X49842Y-38657D01*
X51092Y-19842D02*
X51407Y-20157D01*
X51407Y-19842D02*
X51092Y-20157D01*
X51092Y-20842D02*
X51407Y-21157D01*
X51407Y-20842D02*
X51092Y-21157D01*
X51092Y-21842D02*
X51407Y-22157D01*
X51407Y-21842D02*
X51092Y-22157D01*
X51092Y-22842D02*
X51407Y-23157D01*
X51407Y-22842D02*
X51092Y-23157D01*
X51092Y-23842D02*
X51407Y-24157D01*
X51407Y-23842D02*
X51092Y-24157D01*
X51092Y-24842D02*
X51407Y-25157D01*
X51407Y-24842D02*
X51092Y-25157D01*
X51092Y-25842D02*
X51407Y-26157D01*
X51407Y-25842D02*
X51092Y-26157D01*
X51092Y-26842D02*
X51407Y-27157D01*
X51407Y-26842D02*
X51092Y-27157D01*
X51092Y-27842D02*
X51407Y-28157D01*
X51407Y-27842D02*
X51092Y-28157D01*
X51092Y-28842D02*
X51407Y-29157D01*
X51407Y-28842D02*
X51092Y-29157D01*
X51092Y-29842D02*
X51407Y-30157D01*
X51407Y-29842D02*
X51092Y-30157D01*
X51092Y-30842D02*
X51407Y-31157D01*
X51407Y-30842D02*
X51092Y-31157D01*
X51092Y-31842D02*
X51407Y-32157D01*
X51407Y-31842D02*
X51092Y-32157D01*
X51092Y-32842D02*
X51407Y-33157D01*
X51407Y-32842D02*
X51092Y-33157D01*
X51092Y-33842D02*
X51407Y-34157D01*
X51407Y-33842D02*
X51092Y-34157D01*
X51092Y-34842D02*
X51407Y-35157D01*
X51407Y-34842D02*
X51092Y-35157D01*
X51092Y-35842D02*
X51407Y-36157D01*
X51407Y-35842D02*
X51092Y-36157D01*
X57092Y-19842D02*
X57407Y-20157D01*
X57407Y-19842D02*
X57092Y-20157D01*
X57092Y-20842D02*
X57407Y-21157D01*
X57407Y-20842D02*
X57092Y-21157D01*
X57092Y-21842D02*
X57407Y-22157D01*
X57407Y-21842D02*
X57092Y-22157D01*
X57092Y-22842D02*
X57407Y-23157D01*
X57407Y-22842D02*
X57092Y-23157D01*
X57092Y-23842D02*
X57407Y-24157D01*
X57407Y-23842D02*
X57092Y-24157D01*
X57092Y-24842D02*
X57407Y-25157D01*
X57407Y-24842D02*
X57092Y-25157D01*
X57092Y-25842D02*
X57407Y-26157D01*
X57407Y-25842D02*
X57092Y-26157D01*
X57092Y-26842D02*
X57407Y-27157D01*
X57407Y-26842D02*
X57092Y-27157D01*
X57092Y-27842D02*
X57407Y-28157D01*
X57407Y-27842D02*
X57092Y-28157D01*
X57092Y-28842D02*
X57407Y-29157D01*
X57407Y-28842D02*
X57092Y-29157D01*
X57092Y-29842D02*
X57407Y-30157D01*
X57407Y-29842D02*
X57092Y-30157D01*
X57092Y-30842D02*
X57407Y-31157D01*
X57407Y-30842D02*
X57092Y-31157D01*
X57092Y-31842D02*
X57407Y-32157D01*
X57407Y-31842D02*
X57092Y-32157D01*
X57092Y-32842D02*
X57407Y-33157D01*
X57407Y-32842D02*
X57092Y-33157D01*
X57092Y-33842D02*
X57407Y-34157D01*
X57407Y-33842D02*
X57092Y-34157D01*
X57092Y-34842D02*
X57407Y-35157D01*
X57407Y-34842D02*
X57092Y-35157D01*
X57092Y-35842D02*
X57407Y-36157D01*
X57407Y-35842D02*
X57092Y-36157D01*
X57092Y-37342D02*
X57407Y-37657D01*
X57407Y-37342D02*
X57092Y-37657D01*
X43696Y-15750D02*
G75*
G03X43696Y-15750I-196J0D01*
G74*
G01*
X44896Y-41450D02*
G75*
G03X44896Y-41450I-196J0D01*
G74*
G01*
X47196Y-15250D02*
G75*
G03X47196Y-15250I-196J0D01*
G74*
G01*
X47196Y-16250D02*
G75*
G03X47196Y-16250I-196J0D01*
G74*
G01*
X47196Y-40750D02*
G75*
G03X47196Y-40750I-196J0D01*
G74*
G01*
X47196Y-41750D02*
G75*
G03X47196Y-41750I-196J0D01*
G74*
G01*
X48196Y-15250D02*
G75*
G03X48196Y-15250I-196J0D01*
G74*
G01*
X48196Y-16250D02*
G75*
G03X48196Y-16250I-196J0D01*
G74*
G01*
X48196Y-40750D02*
G75*
G03X48196Y-40750I-196J0D01*
G74*
G01*
X48196Y-41750D02*
G75*
G03X48196Y-41750I-196J0D01*
G74*
G01*
X49196Y-15250D02*
G75*
G03X49196Y-15250I-196J0D01*
G74*
G01*
X49196Y-16250D02*
G75*
G03X49196Y-16250I-196J0D01*
G74*
G01*
X49196Y-40750D02*
G75*
G03X49196Y-40750I-196J0D01*
G74*
G01*
X49196Y-41750D02*
G75*
G03X49196Y-41750I-196J0D01*
G74*
G01*
X50196Y-15250D02*
G75*
G03X50196Y-15250I-196J0D01*
G74*
G01*
X50196Y-16250D02*
G75*
G03X50196Y-16250I-196J0D01*
G74*
G01*
X50196Y-40750D02*
G75*
G03X50196Y-40750I-196J0D01*
G74*
G01*
X50196Y-41750D02*
G75*
G03X50196Y-41750I-196J0D01*
G74*
G01*
X51196Y-15250D02*
G75*
G03X51196Y-15250I-196J0D01*
G74*
G01*
X51196Y-16250D02*
G75*
G03X51196Y-16250I-196J0D01*
G74*
G01*
X51196Y-40750D02*
G75*
G03X51196Y-40750I-196J0D01*
G74*
G01*
X51196Y-41750D02*
G75*
G03X51196Y-41750I-196J0D01*
G74*
G01*
X52196Y-15250D02*
G75*
G03X52196Y-15250I-196J0D01*
G74*
G01*
X52196Y-16250D02*
G75*
G03X52196Y-16250I-196J0D01*
G74*
G01*
X52196Y-40750D02*
G75*
G03X52196Y-40750I-196J0D01*
G74*
G01*
X52196Y-41750D02*
G75*
G03X52196Y-41750I-196J0D01*
G74*
G01*
X53196Y-15250D02*
G75*
G03X53196Y-15250I-196J0D01*
G74*
G01*
X53196Y-16250D02*
G75*
G03X53196Y-16250I-196J0D01*
G74*
G01*
X53196Y-40750D02*
G75*
G03X53196Y-40750I-196J0D01*
G74*
G01*
X53196Y-41750D02*
G75*
G03X53196Y-41750I-196J0D01*
G74*
G01*
X54196Y-15250D02*
G75*
G03X54196Y-15250I-196J0D01*
G74*
G01*
X54196Y-16250D02*
G75*
G03X54196Y-16250I-196J0D01*
G74*
G01*
X54196Y-40750D02*
G75*
G03X54196Y-40750I-196J0D01*
G74*
G01*
X54196Y-41750D02*
G75*
G03X54196Y-41750I-196J0D01*
G74*
G01*
X56496Y-41450D02*
G75*
G03X56496Y-41450I-196J0D01*
G74*
G01*
X57696Y-15750D02*
G75*
G03X57696Y-15750I-196J0D01*
G74*
G01*
G54D13*
X41563Y-47088D02*
X41563Y-45907D01*
X41844Y-45907D01*
X42013Y-45963D01*
X42126Y-46076D01*
X42182Y-46188D01*
X42238Y-46413D01*
X42238Y-46582D01*
X42182Y-46807D01*
X42126Y-46919D01*
X42013Y-47032D01*
X41844Y-47088D01*
X41563Y-47088D01*
X42744Y-47088D02*
X42744Y-46301D01*
X42744Y-46526D02*
X42800Y-46413D01*
X42857Y-46357D01*
X42969Y-46301D01*
X43082Y-46301D01*
X43475Y-47088D02*
X43475Y-46301D01*
X43475Y-45907D02*
X43419Y-45963D01*
X43475Y-46019D01*
X43532Y-45963D01*
X43475Y-45907D01*
X43475Y-46019D01*
X44207Y-47088D02*
X44094Y-47032D01*
X44038Y-46919D01*
X44038Y-45907D01*
X44825Y-47088D02*
X44713Y-47032D01*
X44656Y-46919D01*
X44656Y-45907D01*
X46175Y-47088D02*
X46175Y-45907D01*
X46569Y-46751D01*
X46962Y-45907D01*
X46962Y-47088D01*
X48031Y-47088D02*
X48031Y-46469D01*
X47975Y-46357D01*
X47862Y-46301D01*
X47637Y-46301D01*
X47525Y-46357D01*
X48031Y-47032D02*
X47919Y-47088D01*
X47637Y-47088D01*
X47525Y-47032D01*
X47469Y-46919D01*
X47469Y-46807D01*
X47525Y-46694D01*
X47637Y-46638D01*
X47919Y-46638D01*
X48031Y-46582D01*
X48593Y-46301D02*
X48593Y-47482D01*
X48593Y-46357D02*
X48706Y-46301D01*
X48931Y-46301D01*
X49043Y-46357D01*
X49100Y-46413D01*
X49156Y-46526D01*
X49156Y-46863D01*
X49100Y-46976D01*
X49043Y-47032D01*
X48931Y-47088D01*
X48706Y-47088D01*
X48593Y-47032D01*
X49662Y-46976D02*
X49718Y-47032D01*
X49662Y-47088D01*
X49606Y-47032D01*
X49662Y-46976D01*
X49662Y-47088D01*
X49662Y-46357D02*
X49718Y-46413D01*
X49662Y-46469D01*
X49606Y-46413D01*
X49662Y-46357D01*
X49662Y-46469D01*
X40180Y-48877D02*
X40494Y-49192D01*
X40494Y-48877D02*
X40180Y-49192D01*
X41788Y-48387D02*
X41901Y-48387D01*
X42013Y-48443D01*
X42069Y-48500D01*
X42126Y-48612D01*
X42182Y-48837D01*
X42182Y-49118D01*
X42126Y-49343D01*
X42069Y-49456D01*
X42013Y-49512D01*
X41901Y-49568D01*
X41788Y-49568D01*
X41676Y-49512D01*
X41619Y-49456D01*
X41563Y-49343D01*
X41507Y-49118D01*
X41507Y-48837D01*
X41563Y-48612D01*
X41619Y-48500D01*
X41676Y-48443D01*
X41788Y-48387D01*
X42688Y-49456D02*
X42744Y-49512D01*
X42688Y-49568D01*
X42632Y-49512D01*
X42688Y-49456D01*
X42688Y-49568D01*
X43419Y-48893D02*
X43307Y-48837D01*
X43250Y-48781D01*
X43194Y-48668D01*
X43194Y-48612D01*
X43250Y-48500D01*
X43307Y-48443D01*
X43419Y-48387D01*
X43644Y-48387D01*
X43757Y-48443D01*
X43813Y-48500D01*
X43869Y-48612D01*
X43869Y-48668D01*
X43813Y-48781D01*
X43757Y-48837D01*
X43644Y-48893D01*
X43419Y-48893D01*
X43307Y-48950D01*
X43250Y-49006D01*
X43194Y-49118D01*
X43194Y-49343D01*
X43250Y-49456D01*
X43307Y-49512D01*
X43419Y-49568D01*
X43644Y-49568D01*
X43757Y-49512D01*
X43813Y-49456D01*
X43869Y-49343D01*
X43869Y-49118D01*
X43813Y-49006D01*
X43757Y-48950D01*
X43644Y-48893D01*
X44600Y-48387D02*
X44713Y-48387D01*
X44825Y-48443D01*
X44881Y-48500D01*
X44938Y-48612D01*
X44994Y-48837D01*
X44994Y-49118D01*
X44938Y-49343D01*
X44881Y-49456D01*
X44825Y-49512D01*
X44713Y-49568D01*
X44600Y-49568D01*
X44488Y-49512D01*
X44432Y-49456D01*
X44375Y-49343D01*
X44319Y-49118D01*
X44319Y-48837D01*
X44375Y-48612D01*
X44432Y-48500D01*
X44488Y-48443D01*
X44600Y-48387D01*
X45500Y-49568D02*
X45500Y-48781D01*
X45500Y-48893D02*
X45556Y-48837D01*
X45669Y-48781D01*
X45838Y-48781D01*
X45950Y-48837D01*
X46006Y-48950D01*
X46006Y-49568D01*
X46006Y-48950D02*
X46063Y-48837D01*
X46175Y-48781D01*
X46344Y-48781D01*
X46456Y-48837D01*
X46512Y-48950D01*
X46512Y-49568D01*
X47075Y-49568D02*
X47075Y-48781D01*
X47075Y-48893D02*
X47131Y-48837D01*
X47244Y-48781D01*
X47412Y-48781D01*
X47525Y-48837D01*
X47581Y-48950D01*
X47581Y-49568D01*
X47581Y-48950D02*
X47637Y-48837D01*
X47750Y-48781D01*
X47919Y-48781D01*
X48031Y-48837D01*
X48087Y-48950D01*
X48087Y-49568D01*
X50393Y-48331D02*
X49381Y-49850D01*
X51912Y-48387D02*
X52024Y-48387D01*
X52137Y-48443D01*
X52193Y-48500D01*
X52249Y-48612D01*
X52306Y-48837D01*
X52306Y-49118D01*
X52249Y-49343D01*
X52193Y-49456D01*
X52137Y-49512D01*
X52024Y-49568D01*
X51912Y-49568D01*
X51799Y-49512D01*
X51743Y-49456D01*
X51687Y-49343D01*
X51631Y-49118D01*
X51631Y-48837D01*
X51687Y-48612D01*
X51743Y-48500D01*
X51799Y-48443D01*
X51912Y-48387D01*
X52812Y-49456D02*
X52868Y-49512D01*
X52812Y-49568D01*
X52755Y-49512D01*
X52812Y-49456D01*
X52812Y-49568D01*
X53599Y-48387D02*
X53712Y-48387D01*
X53824Y-48443D01*
X53880Y-48500D01*
X53937Y-48612D01*
X53993Y-48837D01*
X53993Y-49118D01*
X53937Y-49343D01*
X53880Y-49456D01*
X53824Y-49512D01*
X53712Y-49568D01*
X53599Y-49568D01*
X53487Y-49512D01*
X53430Y-49456D01*
X53374Y-49343D01*
X53318Y-49118D01*
X53318Y-48837D01*
X53374Y-48612D01*
X53430Y-48500D01*
X53487Y-48443D01*
X53599Y-48387D01*
X54387Y-48387D02*
X55118Y-48387D01*
X54724Y-48837D01*
X54893Y-48837D01*
X55005Y-48893D01*
X55061Y-48950D01*
X55118Y-49062D01*
X55118Y-49343D01*
X55061Y-49456D01*
X55005Y-49512D01*
X54893Y-49568D01*
X54555Y-49568D01*
X54443Y-49512D01*
X54387Y-49456D01*
X56243Y-49568D02*
X55568Y-49568D01*
X55905Y-49568D02*
X55905Y-48387D01*
X55793Y-48556D01*
X55680Y-48668D01*
X55568Y-48725D01*
X56692Y-48387D02*
X56692Y-48612D01*
X57142Y-48387D02*
X57142Y-48612D01*
X58886Y-50018D02*
X58830Y-49962D01*
X58717Y-49793D01*
X58661Y-49681D01*
X58605Y-49512D01*
X58548Y-49231D01*
X58548Y-49006D01*
X58605Y-48725D01*
X58661Y-48556D01*
X58717Y-48443D01*
X58830Y-48275D01*
X58886Y-48219D01*
X59955Y-49568D02*
X59280Y-49568D01*
X59617Y-49568D02*
X59617Y-48387D01*
X59505Y-48556D01*
X59392Y-48668D01*
X59280Y-48725D01*
X61079Y-49568D02*
X60405Y-49568D01*
X60742Y-49568D02*
X60742Y-48387D01*
X60629Y-48556D01*
X60517Y-48668D01*
X60405Y-48725D01*
X61811Y-48387D02*
X61923Y-48387D01*
X62036Y-48443D01*
X62092Y-48500D01*
X62148Y-48612D01*
X62204Y-48837D01*
X62204Y-49118D01*
X62148Y-49343D01*
X62092Y-49456D01*
X62036Y-49512D01*
X61923Y-49568D01*
X61811Y-49568D01*
X61698Y-49512D01*
X61642Y-49456D01*
X61586Y-49343D01*
X61529Y-49118D01*
X61529Y-48837D01*
X61586Y-48612D01*
X61642Y-48500D01*
X61698Y-48443D01*
X61811Y-48387D01*
X63610Y-49568D02*
X63610Y-48387D01*
X64117Y-49568D02*
X64117Y-48950D01*
X64060Y-48837D01*
X63948Y-48781D01*
X63779Y-48781D01*
X63667Y-48837D01*
X63610Y-48893D01*
X64848Y-49568D02*
X64735Y-49512D01*
X64679Y-49456D01*
X64623Y-49343D01*
X64623Y-49006D01*
X64679Y-48893D01*
X64735Y-48837D01*
X64848Y-48781D01*
X65016Y-48781D01*
X65129Y-48837D01*
X65185Y-48893D01*
X65241Y-49006D01*
X65241Y-49343D01*
X65185Y-49456D01*
X65129Y-49512D01*
X65016Y-49568D01*
X64848Y-49568D01*
X65916Y-49568D02*
X65804Y-49512D01*
X65748Y-49400D01*
X65748Y-48387D01*
X66816Y-49512D02*
X66704Y-49568D01*
X66479Y-49568D01*
X66366Y-49512D01*
X66310Y-49400D01*
X66310Y-48950D01*
X66366Y-48837D01*
X66479Y-48781D01*
X66704Y-48781D01*
X66816Y-48837D01*
X66872Y-48950D01*
X66872Y-49062D01*
X66310Y-49175D01*
X67322Y-49512D02*
X67435Y-49568D01*
X67660Y-49568D01*
X67772Y-49512D01*
X67829Y-49400D01*
X67829Y-49343D01*
X67772Y-49231D01*
X67660Y-49175D01*
X67491Y-49175D01*
X67379Y-49118D01*
X67322Y-49006D01*
X67322Y-48950D01*
X67379Y-48837D01*
X67491Y-48781D01*
X67660Y-48781D01*
X67772Y-48837D01*
X68222Y-50018D02*
X68279Y-49962D01*
X68391Y-49793D01*
X68447Y-49681D01*
X68503Y-49512D01*
X68560Y-49231D01*
X68560Y-49006D01*
X68503Y-48725D01*
X68447Y-48556D01*
X68391Y-48443D01*
X68279Y-48275D01*
X68222Y-48219D01*
G54D12*
X40494Y-50593D02*
G75*
G03X40494Y-50593I-196J0D01*
G74*
G01*
G54D13*
X42182Y-51127D02*
X41507Y-51127D01*
X41844Y-51127D02*
X41844Y-49946D01*
X41732Y-50115D01*
X41619Y-50228D01*
X41507Y-50284D01*
X42688Y-51015D02*
X42744Y-51071D01*
X42688Y-51127D01*
X42632Y-51071D01*
X42688Y-51015D01*
X42688Y-51127D01*
X43475Y-49946D02*
X43588Y-49946D01*
X43700Y-50003D01*
X43757Y-50059D01*
X43813Y-50171D01*
X43869Y-50396D01*
X43869Y-50677D01*
X43813Y-50902D01*
X43757Y-51015D01*
X43700Y-51071D01*
X43588Y-51127D01*
X43475Y-51127D01*
X43363Y-51071D01*
X43307Y-51015D01*
X43250Y-50902D01*
X43194Y-50677D01*
X43194Y-50396D01*
X43250Y-50171D01*
X43307Y-50059D01*
X43363Y-50003D01*
X43475Y-49946D01*
X44600Y-49946D02*
X44713Y-49946D01*
X44825Y-50003D01*
X44881Y-50059D01*
X44938Y-50171D01*
X44994Y-50396D01*
X44994Y-50677D01*
X44938Y-50902D01*
X44881Y-51015D01*
X44825Y-51071D01*
X44713Y-51127D01*
X44600Y-51127D01*
X44488Y-51071D01*
X44432Y-51015D01*
X44375Y-50902D01*
X44319Y-50677D01*
X44319Y-50396D01*
X44375Y-50171D01*
X44432Y-50059D01*
X44488Y-50003D01*
X44600Y-49946D01*
X45500Y-51127D02*
X45500Y-50340D01*
X45500Y-50452D02*
X45556Y-50396D01*
X45669Y-50340D01*
X45838Y-50340D01*
X45950Y-50396D01*
X46006Y-50509D01*
X46006Y-51127D01*
X46006Y-50509D02*
X46063Y-50396D01*
X46175Y-50340D01*
X46344Y-50340D01*
X46456Y-50396D01*
X46512Y-50509D01*
X46512Y-51127D01*
X47075Y-51127D02*
X47075Y-50340D01*
X47075Y-50452D02*
X47131Y-50396D01*
X47244Y-50340D01*
X47412Y-50340D01*
X47525Y-50396D01*
X47581Y-50509D01*
X47581Y-51127D01*
X47581Y-50509D02*
X47637Y-50396D01*
X47750Y-50340D01*
X47919Y-50340D01*
X48031Y-50396D01*
X48087Y-50509D01*
X48087Y-51127D01*
X50393Y-49890D02*
X49381Y-51409D01*
X51912Y-49946D02*
X52024Y-49946D01*
X52137Y-50003D01*
X52193Y-50059D01*
X52249Y-50171D01*
X52306Y-50396D01*
X52306Y-50677D01*
X52249Y-50902D01*
X52193Y-51015D01*
X52137Y-51071D01*
X52024Y-51127D01*
X51912Y-51127D01*
X51799Y-51071D01*
X51743Y-51015D01*
X51687Y-50902D01*
X51631Y-50677D01*
X51631Y-50396D01*
X51687Y-50171D01*
X51743Y-50059D01*
X51799Y-50003D01*
X51912Y-49946D01*
X52812Y-51015D02*
X52868Y-51071D01*
X52812Y-51127D01*
X52755Y-51071D01*
X52812Y-51015D01*
X52812Y-51127D01*
X53599Y-49946D02*
X53712Y-49946D01*
X53824Y-50003D01*
X53880Y-50059D01*
X53937Y-50171D01*
X53993Y-50396D01*
X53993Y-50677D01*
X53937Y-50902D01*
X53880Y-51015D01*
X53824Y-51071D01*
X53712Y-51127D01*
X53599Y-51127D01*
X53487Y-51071D01*
X53430Y-51015D01*
X53374Y-50902D01*
X53318Y-50677D01*
X53318Y-50396D01*
X53374Y-50171D01*
X53430Y-50059D01*
X53487Y-50003D01*
X53599Y-49946D01*
X54387Y-49946D02*
X55118Y-49946D01*
X54724Y-50396D01*
X54893Y-50396D01*
X55005Y-50452D01*
X55061Y-50509D01*
X55118Y-50621D01*
X55118Y-50902D01*
X55061Y-51015D01*
X55005Y-51071D01*
X54893Y-51127D01*
X54555Y-51127D01*
X54443Y-51071D01*
X54387Y-51015D01*
X55680Y-51127D02*
X55905Y-51127D01*
X56018Y-51071D01*
X56074Y-51015D01*
X56186Y-50846D01*
X56243Y-50621D01*
X56243Y-50171D01*
X56186Y-50059D01*
X56130Y-50003D01*
X56018Y-49946D01*
X55793Y-49946D01*
X55680Y-50003D01*
X55624Y-50059D01*
X55568Y-50171D01*
X55568Y-50452D01*
X55624Y-50565D01*
X55680Y-50621D01*
X55793Y-50677D01*
X56018Y-50677D01*
X56130Y-50621D01*
X56186Y-50565D01*
X56243Y-50452D01*
X56692Y-49946D02*
X56692Y-50171D01*
X57142Y-49946D02*
X57142Y-50171D01*
X58886Y-51577D02*
X58830Y-51521D01*
X58717Y-51352D01*
X58661Y-51240D01*
X58605Y-51071D01*
X58548Y-50790D01*
X58548Y-50565D01*
X58605Y-50284D01*
X58661Y-50115D01*
X58717Y-50003D01*
X58830Y-49834D01*
X58886Y-49778D01*
X59223Y-49946D02*
X59955Y-49946D01*
X59561Y-50396D01*
X59730Y-50396D01*
X59842Y-50452D01*
X59898Y-50509D01*
X59955Y-50621D01*
X59955Y-50902D01*
X59898Y-51015D01*
X59842Y-51071D01*
X59730Y-51127D01*
X59392Y-51127D01*
X59280Y-51071D01*
X59223Y-51015D01*
X60967Y-49946D02*
X60742Y-49946D01*
X60629Y-50003D01*
X60573Y-50059D01*
X60461Y-50228D01*
X60405Y-50452D01*
X60405Y-50902D01*
X60461Y-51015D01*
X60517Y-51071D01*
X60629Y-51127D01*
X60854Y-51127D01*
X60967Y-51071D01*
X61023Y-51015D01*
X61079Y-50902D01*
X61079Y-50621D01*
X61023Y-50509D01*
X60967Y-50452D01*
X60854Y-50396D01*
X60629Y-50396D01*
X60517Y-50452D01*
X60461Y-50509D01*
X60405Y-50621D01*
X62486Y-51127D02*
X62486Y-49946D01*
X62992Y-51127D02*
X62992Y-50509D01*
X62935Y-50396D01*
X62823Y-50340D01*
X62654Y-50340D01*
X62542Y-50396D01*
X62486Y-50452D01*
X63723Y-51127D02*
X63610Y-51071D01*
X63554Y-51015D01*
X63498Y-50902D01*
X63498Y-50565D01*
X63554Y-50452D01*
X63610Y-50396D01*
X63723Y-50340D01*
X63892Y-50340D01*
X64004Y-50396D01*
X64060Y-50452D01*
X64117Y-50565D01*
X64117Y-50902D01*
X64060Y-51015D01*
X64004Y-51071D01*
X63892Y-51127D01*
X63723Y-51127D01*
X64791Y-51127D02*
X64679Y-51071D01*
X64623Y-50959D01*
X64623Y-49946D01*
X65691Y-51071D02*
X65579Y-51127D01*
X65354Y-51127D01*
X65241Y-51071D01*
X65185Y-50959D01*
X65185Y-50509D01*
X65241Y-50396D01*
X65354Y-50340D01*
X65579Y-50340D01*
X65691Y-50396D01*
X65748Y-50509D01*
X65748Y-50621D01*
X65185Y-50734D01*
X66198Y-51071D02*
X66310Y-51127D01*
X66535Y-51127D01*
X66647Y-51071D01*
X66704Y-50959D01*
X66704Y-50902D01*
X66647Y-50790D01*
X66535Y-50734D01*
X66366Y-50734D01*
X66254Y-50677D01*
X66198Y-50565D01*
X66198Y-50509D01*
X66254Y-50396D01*
X66366Y-50340D01*
X66535Y-50340D01*
X66647Y-50396D01*
X67097Y-51577D02*
X67154Y-51521D01*
X67266Y-51352D01*
X67322Y-51240D01*
X67379Y-51071D01*
X67435Y-50790D01*
X67435Y-50565D01*
X67379Y-50284D01*
X67322Y-50115D01*
X67266Y-50003D01*
X67154Y-49834D01*
X67097Y-49778D01*
M02*
