<?xml version="1.0" standalone="no"?>
 <!DOCTYPE svg PUBLIC "-//W3C//DTD SVG 1.1//EN" 
 "http://www.w3.org/Graphics/SVG/1.1/DTD/svg11.dtd"> 
<svg xmlns="http://www.w3.org/2000/svg" version="1.1" 
    width="29.7002cm" height="21.0007cm" viewBox="0 0 116930 82680 ">
<title>SVG Picture created as capsense+fsr-B_Cu.svg date 2013/12/10 21:20:51 </title>
  <desc>Picture generated by PCBNEW </desc>
<g style="fill:#000000; fill-opacity:1;stroke:#000000; stroke-opacity:1;
stroke-linecap:round; stroke-linejoin:round; "
 transform="translate(0 0) scale(1 1)">
</g>
<g style="fill:#000000; fill-opacity:0.0; 
stroke:#000000; stroke-width:59.0551; stroke-opacity:1; 
stroke-linecap:round; stroke-linejoin:round;">
</g>
<g style="fill:#000000; fill-opacity:1.0; 
stroke:#000000; stroke-width:59.0551; stroke-opacity:1; 
stroke-linecap:round; stroke-linejoin:round;">
<circle cx="57250" cy="20000" r="167.323" /> 
<circle cx="57250" cy="21000" r="167.323" /> 
<circle cx="57250" cy="22000" r="167.323" /> 
<circle cx="57250" cy="23000" r="167.323" /> 
<circle cx="57250" cy="24000" r="167.323" /> 
<circle cx="57250" cy="25000" r="167.323" /> 
<circle cx="57250" cy="26000" r="167.323" /> 
<circle cx="57250" cy="27000" r="167.323" /> 
<circle cx="57250" cy="28000" r="167.323" /> 
<circle cx="57250" cy="29000" r="167.323" /> 
<circle cx="57250" cy="30000" r="167.323" /> 
<circle cx="57250" cy="31000" r="167.323" /> 
<circle cx="57250" cy="32000" r="167.323" /> 
<circle cx="57250" cy="33000" r="167.323" /> 
<circle cx="57250" cy="34000" r="167.323" /> 
<circle cx="57250" cy="35000" r="167.323" /> 
<circle cx="57250" cy="36000" r="167.323" /> 
<circle cx="51250" cy="36000" r="167.323" /> 
<circle cx="51250" cy="35000" r="167.323" /> 
<circle cx="51250" cy="34000" r="167.323" /> 
<circle cx="51250" cy="33000" r="167.323" /> 
<circle cx="51250" cy="32000" r="167.323" /> 
<circle cx="51250" cy="31000" r="167.323" /> 
<circle cx="51250" cy="30000" r="167.323" /> 
<circle cx="51250" cy="29000" r="167.323" /> 
<circle cx="51250" cy="28000" r="167.323" /> 
<circle cx="51250" cy="27000" r="167.323" /> 
<circle cx="51250" cy="26000" r="167.323" /> 
<circle cx="51250" cy="25000" r="167.323" /> 
<circle cx="51250" cy="24000" r="167.323" /> 
<circle cx="51250" cy="23000" r="167.323" /> 
<circle cx="51250" cy="22000" r="167.323" /> 
<circle cx="51250" cy="21000" r="167.323" /> 
<circle cx="51250" cy="20000" r="167.323" /> 
<circle cx="49000" cy="23000" r="245.472" /> 
<circle cx="50000" cy="23000" r="245.472" /> 
<circle cx="47000" cy="23000" r="245.472" /> 
<circle cx="48000" cy="23000" r="245.472" /> 
<circle cx="45000" cy="23000" r="245.472" /> 
<circle cx="46000" cy="23000" r="245.472" /> 
<circle cx="43000" cy="23000" r="245.472" /> 
<circle cx="44000" cy="23000" r="245.472" /> 
<circle cx="50000" cy="22000" r="245.472" /> 
<circle cx="49000" cy="22000" r="245.472" /> 
<circle cx="48000" cy="22000" r="245.472" /> 
<circle cx="47000" cy="22000" r="245.472" /> 
<circle cx="46000" cy="22000" r="245.472" /> 
<circle cx="45000" cy="22000" r="245.472" /> 
<circle cx="44000" cy="22000" r="245.472" /> 
<circle cx="43000" cy="22000" r="245.472" /> 
<circle cx="49000" cy="26000" r="245.472" /> 
<circle cx="50000" cy="26000" r="245.472" /> 
<circle cx="47000" cy="26000" r="245.472" /> 
<circle cx="48000" cy="26000" r="245.472" /> 
<circle cx="45000" cy="26000" r="245.472" /> 
<circle cx="46000" cy="26000" r="245.472" /> 
<circle cx="43000" cy="26000" r="245.472" /> 
<circle cx="44000" cy="26000" r="245.472" /> 
<circle cx="50000" cy="27000" r="245.472" /> 
<circle cx="49000" cy="27000" r="245.472" /> 
<circle cx="48000" cy="27000" r="245.472" /> 
<circle cx="47000" cy="27000" r="245.472" /> 
<circle cx="46000" cy="27000" r="245.472" /> 
<circle cx="45000" cy="27000" r="245.472" /> 
<circle cx="44000" cy="27000" r="245.472" /> 
<circle cx="43000" cy="27000" r="245.472" /> 
<circle cx="49000" cy="28000" r="245.472" /> 
<circle cx="50000" cy="28000" r="245.472" /> 
<circle cx="47000" cy="28000" r="245.472" /> 
<circle cx="48000" cy="28000" r="245.472" /> 
<circle cx="45000" cy="28000" r="245.472" /> 
<circle cx="46000" cy="28000" r="245.472" /> 
<circle cx="43000" cy="28000" r="245.472" /> 
<circle cx="44000" cy="28000" r="245.472" /> 
<circle cx="50000" cy="29000" r="245.472" /> 
<circle cx="49000" cy="29000" r="245.472" /> 
<circle cx="48000" cy="29000" r="245.472" /> 
<circle cx="47000" cy="29000" r="245.472" /> 
<circle cx="46000" cy="29000" r="245.472" /> 
<circle cx="45000" cy="29000" r="245.472" /> 
<circle cx="44000" cy="29000" r="245.472" /> 
<circle cx="43000" cy="29000" r="245.472" /> 
<circle cx="49000" cy="31000" r="245.472" /> 
<circle cx="50000" cy="31000" r="245.472" /> 
<circle cx="47000" cy="31000" r="245.472" /> 
<circle cx="48000" cy="31000" r="245.472" /> 
<circle cx="45000" cy="31000" r="245.472" /> 
<circle cx="46000" cy="31000" r="245.472" /> 
<circle cx="43000" cy="31000" r="245.472" /> 
<circle cx="44000" cy="31000" r="245.472" /> 
<circle cx="50000" cy="32000" r="245.472" /> 
<circle cx="49000" cy="32000" r="245.472" /> 
<circle cx="48000" cy="32000" r="245.472" /> 
<circle cx="47000" cy="32000" r="245.472" /> 
<circle cx="46000" cy="32000" r="245.472" /> 
<circle cx="45000" cy="32000" r="245.472" /> 
<circle cx="44000" cy="32000" r="245.472" /> 
<circle cx="43000" cy="32000" r="245.472" /> 
<circle cx="45000" cy="35000" r="245.472" /> 
<circle cx="46000" cy="35000" r="245.472" /> 
<circle cx="43000" cy="35000" r="245.472" /> 
<circle cx="44000" cy="35000" r="245.472" /> 
<circle cx="43000" cy="33000" r="245.472" /> 
<circle cx="43000" cy="34000" r="245.472" /> 
<circle cx="43500" cy="15750" r="1045.47" /> 
<circle cx="57500" cy="15750" r="1045.47" /> 
<polyline style="fill-rule:evenodd;"
points="46729,16520
46729,15979
47270,15979
47270,16520
46729,16520
" /> 
<circle cx="47000" cy="15250" r="270.472" /> 
<circle cx="48000" cy="16250" r="270.472" /> 
<circle cx="48000" cy="15250" r="270.472" /> 
<circle cx="49000" cy="16250" r="270.472" /> 
<circle cx="49000" cy="15250" r="270.472" /> 
<circle cx="50000" cy="16250" r="270.472" /> 
<circle cx="50000" cy="15250" r="270.472" /> 
<circle cx="51000" cy="16250" r="270.472" /> 
<circle cx="51000" cy="15250" r="270.472" /> 
<circle cx="52000" cy="16250" r="270.472" /> 
<circle cx="52000" cy="15250" r="270.472" /> 
<circle cx="53000" cy="16250" r="270.472" /> 
<circle cx="53000" cy="15250" r="270.472" /> 
<circle cx="54000" cy="16250" r="270.472" /> 
<circle cx="54000" cy="15250" r="270.472" /> 
<circle cx="44700" cy="41450" r="570.472" /> 
<circle cx="56300" cy="41450" r="570.472" /> 
<polyline style="fill-rule:evenodd;"
points="53729,41020
53729,40479
54270,40479
54270,41020
53729,41020
" /> 
<circle cx="54000" cy="41750" r="270.472" /> 
<circle cx="53000" cy="40750" r="270.472" /> 
<circle cx="53000" cy="41750" r="270.472" /> 
<circle cx="52000" cy="40750" r="270.472" /> 
<circle cx="52000" cy="41750" r="270.472" /> 
<circle cx="51000" cy="40750" r="270.472" /> 
<circle cx="51000" cy="41750" r="270.472" /> 
<circle cx="50000" cy="40750" r="270.472" /> 
<circle cx="50000" cy="41750" r="270.472" /> 
<circle cx="49000" cy="40750" r="270.472" /> 
<circle cx="49000" cy="41750" r="270.472" /> 
<circle cx="48000" cy="40750" r="270.472" /> 
<circle cx="48000" cy="41750" r="270.472" /> 
<circle cx="47000" cy="40750" r="270.472" /> 
<circle cx="47000" cy="41750" r="270.472" /> 
<circle cx="46750" cy="35000" r="245.472" /> 
<circle cx="49750" cy="35000" r="245.472" /> 
</g>
<g style="fill:#000000; fill-opacity:1.0; 
stroke:#000000; stroke-width:100; stroke-opacity:1; 
stroke-linecap:round; stroke-linejoin:round;">
<path d="M49000 16250
L49000 18500
" />
<path d="M52250 22000
L51250 23000
" />
<path d="M52250 19250
L52250 22000
" />
<path d="M51750 18750
L52250 19250
" />
<path d="M49250 18750
L51750 18750
" />
<path d="M49000 18500
L49250 18750
" />
<path d="M51250 23000
L50000 23000
" />
<path d="M49000 16250
L49000 16250
" />
<path d="M48000 16250
L48000 19250
" />
<path d="M51750 21500
L51750 19500
" />
<path d="M51750 19500
L51500 19250
" />
<path d="M51500 19250
L51000 19250
" />
<path d="M51000 19250
L48000 19250
" />
<path d="M51750 21500
L51250 22000
" />
<path d="M51250 22000
L50000 22000
" />
<path d="M50000 16250
L50000 18250
" />
<path d="M52750 24500
L51250 26000
" />
<path d="M52750 19000
L52750 24500
" />
<path d="M52000 18250
L52750 19000
" />
<path d="M50000 18250
L52000 18250
" />
<path d="M51250 26000
L50000 26000
" />
<path d="M51000 16250
L51000 17750
" />
<path d="M53250 25000
L51250 27000
" />
<path d="M53250 18750
L53250 25000
" />
<path d="M52250 17750
L53250 18750
" />
<path d="M51000 17750
L52250 17750
" />
<path d="M50000 27000
L51250 27000
" />
<path d="M52000 16250
L52000 16500
" />
<path d="M53750 25500
L51250 28000
" />
<path d="M53750 18250
L53750 25500
" />
<path d="M52000 16500
L53750 18250
" />
<path d="M50000 28000
L51250 28000
" />
<path d="M53000 16250
L53000 16500
" />
<path d="M54250 26000
L51250 29000
" />
<path d="M54250 17750
L54250 26000
" />
<path d="M53000 16500
L54250 17750
" />
<path d="M50000 29000
L51250 29000
" />
<path d="M54000 16250
L54000 16500
" />
<path d="M54750 27500
L51250 31000
" />
<path d="M54750 17250
L54750 27500
" />
<path d="M54000 16500
L54750 17250
" />
<path d="M50000 31000
L51250 31000
" />
<path d="M51250 32000
L55250 28000
" />
<path d="M55250 16500
L54000 15250
" />
<path d="M55250 28000
L55250 16500
" />
<path d="M50000 32000
L51250 32000
" />
<path d="M55750 28250
L55750 28250
" />
<path d="M47000 14750
L47250 14500
" />
<path d="M47250 14500
L54500 14500
" />
<path d="M54500 14500
L55750 15750
" />
<path d="M55750 15750
L55750 28250
" />
<path d="M47000 15250
L47000 14750
" />
<path d="M52000 34250
L51250 35000
" />
<path d="M52000 32000
L52000 34250
" />
<path d="M55750 28250
L52000 32000
" />
<path d="M51250 35000
L50000 35000
" />
<path d="M57250 33000
L56500 33000
" />
<path d="M54750 41000
L54000 41750
" />
<path d="M54750 40000
L54750 41000
" />
<path d="M56000 38750
L54750 40000
" />
<path d="M56000 33500
L56000 38750
" />
<path d="M56500 33000
L56000 33500
" />
<path d="M57250 32000
L56000 32000
" />
<path d="M54000 38500
L54000 40750
" />
<path d="M55250 37250
L54000 38500
" />
<path d="M55250 32750
L55250 37250
" />
<path d="M56000 32000
L55250 32750
" />
<path d="M57250 31000
L56000 31000
" />
<path d="M53000 38250
L53000 40750
" />
<path d="M54500 36750
L53000 38250
" />
<path d="M54500 32500
L54500 36750
" />
<path d="M56000 31000
L54500 32500
" />
<path d="M57250 30000
L56250 30000
" />
<path d="M52000 38250
L52000 40750
" />
<path d="M53750 36500
L52000 38250
" />
<path d="M53750 32500
L53750 36500
" />
<path d="M56250 30000
L53750 32500
" />
<path d="M57250 29000
L56500 29000
" />
<path d="M51000 38250
L51000 40750
" />
<path d="M53000 36250
L51000 38250
" />
<path d="M53000 32500
L53000 36250
" />
<path d="M56500 29000
L53000 32500
" />
<path d="M57250 28000
L56750 28000
" />
<path d="M50000 38250
L50000 40750
" />
<path d="M52500 35750
L50000 38250
" />
<path d="M52500 32250
L52500 35750
" />
<path d="M56750 28000
L52500 32250
" />
<path d="M49000 40750
L49000 39750
" />
<path d="M49750 36000
L49000 36750
" />
<path d="M49000 36750
L49000 39750
" />
<path d="M49750 36000
L51250 36000
" />
<path d="M48250 39750
L48250 40500
" />
<path d="M48750 34000
L48250 34500
" />
<path d="M48250 34500
L48250 39750
" />
<path d="M51250 34000
L48750 34000
" />
<path d="M48250 40500
L48000 40750
" />
<path d="M47500 39750
L47500 40250
" />
<path d="M48750 33000
L47500 34250
" />
<path d="M47500 34250
L47500 39750
" />
<path d="M51250 33000
L48750 33000
" />
<path d="M47500 40250
L47000 40750
" />
<path d="M43000 33000
L43000 32000
" />
<path d="M43000 22000
L43000 21500
" />
<path d="M47000 17500
L47000 16250
" />
<path d="M43000 21500
L47000 17500
" />
<path d="M43000 32000
L43000 22000
" />
<path d="M53000 41750
L53000 42000
" />
<path d="M58500 24250
L57250 23000
" />
<path d="M58500 40750
L58500 24250
" />
<path d="M57000 42250
L58500 40750
" />
<path d="M53250 42250
L57000 42250
" />
<path d="M53000 42000
L53250 42250
" />
<path d="M45000 29000
L44000 29000
" />
<path d="M48000 31000
L49000 31000
" />
<path d="M46000 31000
L47000 31000
" />
<path d="M44000 31000
L45000 31000
" />
<path d="M49000 29000
L48000 29000
" />
<path d="M47000 29000
L46000 29000
" />
<path d="M48000 27000
L49000 27000
" />
<path d="M46000 27000
L47000 27000
" />
<path d="M44000 27000
L45000 27000
" />
<path d="M49000 23000
L48000 23000
" />
<path d="M46000 35000
L46750 35000
" />
<path d="M44000 35000
L45000 35000
" />
<path d="M43000 34000
L43000 35000
" />
<path d="M48000 32000
L49000 32000
" />
<path d="M46000 32000
L47000 32000
" />
<path d="M44000 32000
L45000 32000
" />
<path d="M44000 22000
L45000 22000
" />
<path d="M48000 22000
L49000 22000
" />
<path d="M46000 22000
L47000 22000
" />
<path d="M45000 23000
L44000 23000
" />
<path d="M47000 23000
L46000 23000
" />
</g>
<g style="fill:#000000; fill-opacity:1.0; 
stroke:#000000; stroke-width:59.0551; stroke-opacity:1; 
stroke-linecap:round; stroke-linejoin:round;">
<polyline style="fill-rule:evenodd;"
points="58995,42495
58825,42495
58825,15487
58623,15000
58251,14627
57764,14425
57237,14424
56750,14626
56377,14998
56175,15485
56174,16012
56376,16499
56748,16872
57235,17074
57762,17075
58249,16873
58622,16501
58824,16014
58825,15487
58825,42495
57162,42495
57212,42462
58712,40962
58712,40962
58751,40903
58777,40864
58777,40864
58800,40750
58800,24250
58777,24135
58712,24037
57696,23022
57696,22911
57696,21911
57696,20911
57696,19911
57629,19747
57503,19621
57339,19553
57161,19553
56997,19620
56871,19746
56803,19910
56803,20088
56870,20252
56996,20378
57160,20446
57338,20446
57502,20379
57628,20253
57696,20089
57696,19911
57696,20911
57629,20747
57503,20621
57339,20553
57161,20553
56997,20620
56871,20746
56803,20910
56803,21088
56870,21252
56996,21378
57160,21446
57338,21446
57502,21379
57628,21253
57696,21089
57696,20911
57696,21911
57629,21747
57503,21621
57339,21553
57161,21553
56997,21620
56871,21746
56803,21910
56803,22088
56870,22252
56996,22378
57160,22446
57338,22446
57502,22379
57628,22253
57696,22089
57696,21911
57696,22911
57629,22747
57503,22621
57339,22553
57161,22553
56997,22620
56871,22746
56803,22910
56803,23088
56870,23252
56996,23378
57160,23446
57272,23446
57407,23581
57339,23553
57161,23553
56997,23620
56871,23746
56803,23910
56803,24088
56870,24252
56996,24378
57160,24446
57338,24446
57502,24379
57628,24253
57696,24089
57696,23911
57668,23842
58200,24374
58200,40625
57702,41123
57702,36057
57696,35985
57696,34911
57696,33911
57629,33747
57503,33621
57339,33553
57161,33553
56997,33620
56871,33746
56803,33910
56803,34088
56870,34252
56996,34378
57160,34446
57338,34446
57502,34379
57628,34253
57696,34089
57696,33911
57696,34911
57629,34747
57503,34621
57339,34553
57161,34553
56997,34620
56871,34746
56803,34910
56803,35088
56870,35252
56996,35378
57160,35446
57338,35446
57502,35379
57628,35253
57696,35089
57696,34911
57696,35985
57689,35879
57645,35774
57561,35759
57490,35830
57490,35688
57475,35604
57307,35547
57129,35560
57024,35604
57009,35688
57250,35929
57490,35688
57490,35830
57320,36000
57561,36240
57645,36225
57702,36057
57702,41123
57490,41335
57490,36311
57250,36070
57179,36141
57179,36000
56938,35759
56854,35774
56797,35942
56810,36120
56854,36225
56938,36240
57179,36000
57179,36141
57009,36311
57024,36395
57192,36452
57370,36439
57475,36395
57490,36311
57490,41335
57110,41715
57149,41619
57150,41281
57021,40969
56782,40729
56469,40600
56131,40599
55819,40728
55579,40967
55450,41280
55449,41618
55578,41930
55598,41950
54512,41950
54549,41859
54550,41641
54545,41629
54962,41212
55027,41114
55027,41114
55050,41000
55050,40124
56212,38962
56277,38864
56299,38750
56300,38750
56300,33624
56624,33300
56918,33300
56996,33378
57160,33446
57338,33446
57502,33379
57628,33253
57696,33089
57696,32911
57629,32747
57503,32621
57339,32553
57161,32553
56997,32620
56918,32700
56500,32700
56385,32722
56287,32787
55787,33287
55722,33385
55700,33500
55700,38625
54537,39787
54472,39885
54450,40000
54450,40246
54441,40238
54349,40200
54300,40200
54300,38624
55462,37462
55527,37364
55549,37250
55550,37250
55550,32874
56124,32300
56918,32300
56996,32378
57160,32446
57338,32446
57502,32379
57628,32253
57696,32089
57696,31911
57629,31747
57503,31621
57339,31553
57161,31553
56997,31620
56918,31700
56000,31700
55885,31722
55787,31787
55037,32537
54972,32635
54950,32750
54950,37125
53787,38287
53722,38385
53700,38500
53700,40200
53650,40200
53558,40238
53488,40308
53450,40400
53450,40422
53311,40284
53300,40279
53300,38374
54712,36962
54712,36962
54751,36903
54777,36864
54777,36864
54800,36750
54800,32624
56124,31300
56918,31300
56996,31378
57160,31446
57338,31446
57502,31379
57628,31253
57696,31089
57696,30911
57629,30747
57503,30621
57339,30553
57161,30553
56997,30620
56918,30700
56000,30700
55967,30706
56374,30300
56918,30300
56996,30378
57160,30446
57338,30446
57502,30379
57628,30253
57696,30089
57696,29911
57629,29747
57503,29621
57339,29553
57161,29553
56997,29620
56918,29700
56250,29700
56217,29706
56624,29300
56918,29300
56996,29378
57160,29446
57338,29446
57502,29379
57628,29253
57696,29089
57696,28911
57629,28747
57503,28621
57339,28553
57161,28553
56997,28620
56918,28700
56500,28700
56467,28706
56874,28300
56918,28300
56996,28378
57160,28446
57338,28446
57502,28379
57628,28253
57696,28089
57696,27911
57696,26911
57696,25911
57696,24911
57629,24747
57503,24621
57339,24553
57161,24553
56997,24620
56871,24746
56803,24910
56803,25088
56870,25252
56996,25378
57160,25446
57338,25446
57502,25379
57628,25253
57696,25089
57696,24911
57696,25911
57629,25747
57503,25621
57339,25553
57161,25553
56997,25620
56871,25746
56803,25910
56803,26088
56870,26252
56996,26378
57160,26446
57338,26446
57502,26379
57628,26253
57696,26089
57696,25911
57696,26911
57629,26747
57503,26621
57339,26553
57161,26553
56997,26620
56871,26746
56803,26910
56803,27088
56870,27252
56996,27378
57160,27446
57338,27446
57502,27379
57628,27253
57696,27089
57696,26911
57696,27911
57629,27747
57503,27621
57339,27553
57161,27553
56997,27620
56918,27700
56750,27700
56635,27722
56537,27787
56043,28282
56049,28250
56050,28250
56050,15750
56027,15635
55962,15537
54712,14287
54614,14222
54500,14200
47250,14200
47135,14222
47096,14248
47037,14287
46787,14537
46722,14635
46700,14750
46700,14778
46688,14783
46534,14938
46450,15140
46449,15358
46533,15561
46672,15700
46650,15700
46558,15738
46488,15808
46450,15900
46450,15999
46450,16137
46512,16200
46950,16200
46950,16192
47050,16192
47050,16200
47057,16200
47057,16300
47050,16300
47050,16737
47112,16800
47349,16800
47441,16761
47511,16691
47550,16599
47550,16577
47688,16715
47700,16720
47700,19250
47722,19364
47787,19462
47885,19527
48000,19550
51000,19550
51375,19550
51407,19581
51339,19553
51161,19553
50997,19620
50871,19746
50803,19910
50803,20088
50870,20252
50996,20378
51160,20446
51338,20446
51450,20400
51450,20599
51339,20553
51161,20553
50997,20620
50871,20746
50803,20910
50803,21088
50870,21252
50996,21378
51160,21446
51338,21446
51407,21418
51272,21553
51161,21553
50997,21620
50918,21700
50442,21700
50297,21555
50104,21475
49896,21474
49703,21554
49555,21702
49499,21835
49445,21703
49297,21555
49104,21475
48896,21474
48703,21554
48557,21700
48442,21700
48297,21555
48104,21475
47896,21474
47703,21554
47555,21702
47499,21835
47445,21703
47297,21555
47104,21475
46950,21474
46950,16737
46950,16300
46512,16300
46450,16362
46450,16500
46450,16599
46488,16691
46558,16761
46650,16800
46887,16800
46950,16737
46950,21474
46896,21474
46703,21554
46557,21700
46442,21700
46297,21555
46104,21475
45896,21474
45703,21554
45555,21702
45499,21835
45445,21703
45297,21555
45104,21475
44896,21474
44825,21504
44825,15487
44623,15000
44251,14627
43764,14425
43237,14424
42750,14626
42377,14998
42175,15485
42174,16012
42376,16499
42748,16872
43235,17074
43762,17075
44249,16873
44622,16501
44824,16014
44825,15487
44825,21504
44703,21554
44557,21700
44442,21700
44297,21555
44104,21475
43896,21474
43703,21554
43555,21702
43502,21828
43460,21727
43367,21702
43297,21773
43297,21632
43272,21539
43075,21470
42867,21481
42727,21539
42702,21632
43000,21929
43297,21632
43297,21773
43070,22000
43367,22297
43460,22272
43499,22162
43554,22297
43702,22444
43835,22500
43703,22554
43555,22702
43502,22828
43460,22727
43367,22702
43297,22773
43297,22632
43272,22539
43169,22503
43272,22460
43297,22367
43000,22070
42929,22141
42929,22000
42632,21702
42539,21727
42470,21924
42481,22132
42539,22272
42632,22297
42929,22000
42929,22141
42702,22367
42727,22460
42830,22496
42727,22539
42702,22632
43000,22929
43297,22632
43297,22773
43070,23000
43367,23297
43460,23272
43499,23162
43554,23297
43702,23444
43895,23524
44103,23525
44297,23445
44442,23300
44557,23300
44702,23444
44895,23524
45103,23525
45297,23445
45444,23297
45500,23164
45554,23297
45702,23444
45895,23524
46103,23525
46297,23445
46442,23300
46557,23300
46702,23444
46895,23524
47103,23525
47297,23445
47444,23297
47500,23164
47554,23297
47702,23444
47895,23524
48103,23525
48297,23445
48442,23300
48557,23300
48702,23444
48895,23524
49103,23525
49297,23445
49444,23297
49500,23164
49554,23297
49702,23444
49895,23524
50103,23525
50297,23445
50442,23300
50918,23300
50996,23378
51160,23446
51338,23446
51502,23379
51628,23253
51696,23089
51696,22977
52450,22224
52450,24375
51668,25157
51696,25089
51696,24911
51696,23911
51629,23747
51503,23621
51339,23553
51161,23553
50997,23620
50871,23746
50803,23910
50803,24088
50870,24252
50996,24378
51160,24446
51338,24446
51502,24379
51628,24253
51696,24089
51696,23911
51696,24911
51629,24747
51503,24621
51339,24553
51161,24553
50997,24620
50871,24746
50803,24910
50803,25088
50870,25252
50996,25378
51160,25446
51338,25446
51407,25418
51272,25553
51161,25553
50997,25620
50918,25700
50442,25700
50297,25555
50104,25475
49896,25474
49703,25554
49555,25702
49499,25835
49445,25703
49297,25555
49104,25475
48896,25474
48703,25554
48555,25702
48499,25835
48445,25703
48297,25555
48104,25475
47896,25474
47703,25554
47555,25702
47499,25835
47445,25703
47297,25555
47104,25475
46896,25474
46703,25554
46555,25702
46499,25835
46445,25703
46297,25555
46104,25475
45896,25474
45703,25554
45555,25702
45499,25835
45445,25703
45297,25555
45104,25475
44896,25474
44703,25554
44555,25702
44499,25835
44445,25703
44297,25555
44104,25475
43896,25474
43703,25554
43555,25702
43502,25828
43460,25727
43367,25702
43297,25773
43297,25632
43297,23367
43000,23070
42929,23141
42929,23000
42632,22702
42539,22727
42470,22924
42481,23132
42539,23272
42632,23297
42929,23000
42929,23141
42702,23367
42727,23460
42924,23529
43132,23518
43272,23460
43297,23367
43297,25632
43272,25539
43075,25470
42867,25481
42727,25539
42702,25632
43000,25929
43297,25632
43297,25773
43070,26000
43367,26297
43460,26272
43499,26162
43554,26297
43702,26444
43835,26500
43703,26554
43555,26702
43502,26828
43460,26727
43367,26702
43297,26773
43297,26632
43272,26539
43169,26503
43272,26460
43297,26367
43000,26070
42929,26141
42929,26000
42632,25702
42539,25727
42470,25924
42481,26132
42539,26272
42632,26297
42929,26000
42929,26141
42702,26367
42727,26460
42830,26496
42727,26539
42702,26632
43000,26929
43297,26632
43297,26773
43070,27000
43367,27297
43460,27272
43499,27162
43554,27297
43702,27444
43835,27500
43703,27554
43555,27702
43502,27828
43460,27727
43367,27702
43297,27773
43297,27632
43272,27539
43169,27503
43272,27460
43297,27367
43000,27070
42929,27141
42929,27000
42632,26702
42539,26727
42470,26924
42481,27132
42539,27272
42632,27297
42929,27000
42929,27141
42702,27367
42727,27460
42830,27496
42727,27539
42702,27632
43000,27929
43297,27632
43297,27773
43070,28000
43367,28297
43460,28272
43499,28162
43554,28297
43702,28444
43835,28500
43703,28554
43555,28702
43502,28828
43460,28727
43367,28702
43297,28773
43297,28632
43272,28539
43169,28503
43272,28460
43297,28367
43000,28070
42929,28141
42929,28000
42632,27702
42539,27727
42470,27924
42481,28132
42539,28272
42632,28297
42929,28000
42929,28141
42702,28367
42727,28460
42830,28496
42727,28539
42702,28632
43000,28929
43297,28632
43297,28773
43070,29000
43367,29297
43460,29272
43499,29162
43554,29297
43702,29444
43895,29524
44103,29525
44297,29445
44442,29300
44557,29300
44702,29444
44895,29524
45103,29525
45297,29445
45444,29297
45500,29164
45554,29297
45702,29444
45895,29524
46103,29525
46297,29445
46442,29300
46557,29300
46702,29444
46895,29524
47103,29525
47297,29445
47444,29297
47500,29164
47554,29297
47702,29444
47895,29524
48103,29525
48297,29445
48442,29300
48557,29300
48702,29444
48895,29524
49103,29525
49297,29445
49444,29297
49500,29164
49554,29297
49702,29444
49895,29524
50103,29525
50297,29445
50442,29300
50918,29300
50996,29378
51160,29446
51338,29446
51502,29379
51628,29253
51696,29089
51696,28977
54450,26224
54450,27375
51668,30157
51696,30089
51696,29911
51629,29747
51503,29621
51339,29553
51161,29553
50997,29620
50871,29746
50803,29910
50803,30088
50870,30252
50996,30378
51160,30446
51338,30446
51407,30418
51272,30553
51161,30553
50997,30620
50918,30700
50442,30700
50297,30555
50104,30475
49896,30474
49703,30554
49555,30702
49499,30835
49445,30703
49297,30555
49104,30475
48896,30474
48703,30554
48557,30700
48442,30700
48297,30555
48104,30475
47896,30474
47703,30554
47555,30702
47499,30835
47445,30703
47297,30555
47104,30475
46896,30474
46703,30554
46557,30700
46442,30700
46297,30555
46104,30475
45896,30474
45703,30554
45555,30702
45499,30835
45445,30703
45297,30555
45104,30475
44896,30474
44703,30554
44557,30700
44442,30700
44297,30555
44104,30475
43896,30474
43703,30554
43555,30702
43502,30828
43460,30727
43367,30702
43297,30773
43297,30632
43297,29367
43000,29070
42929,29141
42929,29000
42632,28702
42539,28727
42470,28924
42481,29132
42539,29272
42632,29297
42929,29000
42929,29141
42702,29367
42727,29460
42924,29529
43132,29518
43272,29460
43297,29367
43297,30632
43272,30539
43075,30470
42867,30481
42727,30539
42702,30632
43000,30929
43297,30632
43297,30773
43070,31000
43367,31297
43460,31272
43499,31162
43554,31297
43702,31444
43835,31500
43703,31554
43555,31702
43502,31828
43460,31727
43367,31702
43297,31773
43297,31632
43272,31539
43169,31503
43272,31460
43297,31367
43000,31070
42929,31141
42929,31000
42632,30702
42539,30727
42470,30924
42481,31132
42539,31272
42632,31297
42929,31000
42929,31141
42702,31367
42727,31460
42830,31496
42727,31539
42702,31632
43000,31929
43297,31632
43297,31773
43070,32000
43367,32297
43460,32272
43499,32162
43554,32297
43702,32444
43895,32524
44103,32525
44297,32445
44442,32300
44557,32300
44702,32444
44895,32524
45103,32525
45297,32445
45444,32297
45500,32164
45554,32297
45702,32444
45895,32524
46103,32525
46297,32445
46442,32300
46557,32300
46702,32444
46895,32524
47103,32525
47297,32445
47444,32297
47500,32164
47554,32297
47702,32444
47895,32524
48103,32525
48297,32445
48442,32300
48557,32300
48702,32444
48895,32524
49103,32525
49297,32445
49444,32297
49500,32164
49554,32297
49702,32444
49895,32524
50103,32525
50297,32445
50442,32300
50918,32300
50996,32378
51160,32446
51338,32446
51502,32379
51628,32253
51696,32089
51696,31977
51706,31967
51700,32000
51700,34125
51668,34157
51696,34089
51696,33911
51629,33747
51503,33621
51339,33553
51161,33553
50997,33620
50918,33700
48750,33700
48635,33722
48537,33787
48037,34287
47972,34385
47950,34500
47950,39750
47950,40199
47891,40199
47800,40237
47800,39750
47800,34374
48874,33300
50918,33300
50996,33378
51160,33446
51338,33446
51502,33379
51628,33253
51696,33089
51696,32911
51629,32747
51503,32621
51339,32553
51161,32553
50997,32620
50918,32700
48750,32700
48635,32722
48537,32787
47287,34037
47222,34135
47200,34250
47200,34714
47195,34703
47047,34555
46854,34475
46646,34474
46453,34554
46374,34632
46297,34555
46104,34475
45896,34474
45703,34554
45555,34702
45499,34835
45445,34703
45297,34555
45104,34475
44896,34474
44703,34554
44557,34700
44442,34700
44297,34555
44104,34475
43896,34474
43703,34554
43555,34702
43529,34763
43529,33075
43518,32867
43460,32727
43367,32702
43297,32773
43297,32632
43272,32539
43169,32503
43272,32460
43297,32367
43000,32070
42929,32141
42929,32000
42632,31702
42539,31727
42470,31924
42481,32132
42539,32272
42632,32297
42929,32000
42929,32141
42702,32367
42727,32460
42830,32496
42727,32539
42702,32632
43000,32929
43297,32632
43297,32773
43070,33000
43367,33297
43460,33272
43529,33075
43529,34763
43499,34835
43445,34703
43300,34557
43300,34442
43444,34297
43524,34104
43525,33896
43445,33703
43297,33555
43171,33502
43272,33460
43297,33367
43000,33070
42929,33141
42929,33000
42632,32702
42539,32727
42470,32924
42481,33132
42539,33272
42632,33297
42929,33000
42929,33141
42702,33367
42727,33460
42837,33499
42703,33554
42555,33702
42475,33895
42474,34103
42554,34297
42700,34442
42700,34557
42555,34702
42475,34895
42474,35103
42554,35297
42702,35444
42895,35524
43103,35525
43297,35445
43444,35297
43500,35164
43554,35297
43702,35444
43895,35524
44103,35525
44297,35445
44442,35300
44557,35300
44702,35444
44895,35524
45103,35525
45297,35445
45444,35297
45500,35164
45554,35297
45702,35444
45895,35524
46103,35525
46297,35445
46375,35367
46452,35444
46645,35524
46853,35525
47047,35445
47194,35297
47200,35285
47200,39750
47200,40125
47121,40204
47109,40200
46891,40199
46688,40283
46534,40438
46450,40640
46449,40858
46533,41061
46688,41215
46769,41249
46688,41283
46534,41438
46450,41640
46449,41858
46533,42061
46688,42215
46890,42299
47108,42300
47311,42216
47465,42061
47499,41980
47533,42061
47688,42215
47890,42299
48108,42300
48311,42216
48465,42061
48499,41980
48533,42061
48688,42215
48890,42299
49108,42300
49311,42216
49465,42061
49499,41980
49533,42061
49688,42215
49890,42299
50108,42300
50311,42216
50465,42061
50499,41980
50533,42061
50688,42215
50890,42299
51108,42300
51311,42216
51465,42061
51499,41980
51533,42061
51688,42215
51890,42299
52108,42300
52311,42216
52465,42061
52499,41980
52533,42061
52688,42215
52865,42289
53037,42462
53087,42495
45550,42495
45550,41281
45421,40969
45182,40729
44869,40600
44531,40599
44219,40728
43979,40967
43850,41280
43849,41618
43978,41930
44217,42170
44530,42299
44868,42300
45180,42171
45420,41932
45549,41619
45550,41281
45550,42495
41755,42495
41755,14005
58995,14005
58995,42495
" /> 
</g>
<g style="fill:#000000; fill-opacity:0.0; 
stroke:#000000; stroke-width:100; stroke-opacity:1; 
stroke-linecap:round; stroke-linejoin:round;">
<polyline fill="none;"
points="58995,42495
58825,42495
58825,15487
58623,15000
58251,14627
57764,14425
57237,14424
56750,14626
56377,14998
56175,15485
56174,16012
56376,16499
56748,16872
57235,17074
57762,17075
58249,16873
58622,16501
58824,16014
58825,15487
58825,42495
57162,42495
57212,42462
58712,40962
58712,40962
58751,40903
58777,40864
58777,40864
58800,40750
58800,24250
58777,24135
58712,24037
57696,23022
57696,22911
57696,21911
57696,20911
57696,19911
57629,19747
57503,19621
57339,19553
57161,19553
56997,19620
56871,19746
56803,19910
56803,20088
56870,20252
56996,20378
57160,20446
57338,20446
57502,20379
57628,20253
57696,20089
57696,19911
57696,20911
57629,20747
57503,20621
57339,20553
57161,20553
56997,20620
56871,20746
56803,20910
56803,21088
56870,21252
56996,21378
57160,21446
57338,21446
57502,21379
57628,21253
57696,21089
57696,20911
57696,21911
57629,21747
57503,21621
57339,21553
57161,21553
56997,21620
56871,21746
56803,21910
56803,22088
56870,22252
56996,22378
57160,22446
57338,22446
57502,22379
57628,22253
57696,22089
57696,21911
57696,22911
57629,22747
57503,22621
57339,22553
57161,22553
56997,22620
56871,22746
56803,22910
56803,23088
56870,23252
56996,23378
57160,23446
57272,23446
57407,23581
57339,23553
57161,23553
56997,23620
56871,23746
56803,23910
56803,24088
56870,24252
56996,24378
57160,24446
57338,24446
57502,24379
57628,24253
57696,24089
57696,23911
57668,23842
58200,24374
58200,40625
57702,41123
57702,36057
57696,35985
57696,34911
57696,33911
57629,33747
57503,33621
57339,33553
57161,33553
56997,33620
56871,33746
56803,33910
56803,34088
56870,34252
56996,34378
57160,34446
57338,34446
57502,34379
57628,34253
57696,34089
57696,33911
57696,34911
57629,34747
57503,34621
57339,34553
57161,34553
56997,34620
56871,34746
56803,34910
56803,35088
56870,35252
56996,35378
57160,35446
57338,35446
57502,35379
57628,35253
57696,35089
57696,34911
57696,35985
57689,35879
57645,35774
57561,35759
57490,35830
57490,35688
57475,35604
57307,35547
57129,35560
57024,35604
57009,35688
57250,35929
57490,35688
57490,35830
57320,36000
57561,36240
57645,36225
57702,36057
57702,41123
57490,41335
57490,36311
57250,36070
57179,36141
57179,36000
56938,35759
56854,35774
56797,35942
56810,36120
56854,36225
56938,36240
57179,36000
57179,36141
57009,36311
57024,36395
57192,36452
57370,36439
57475,36395
57490,36311
57490,41335
57110,41715
57149,41619
57150,41281
57021,40969
56782,40729
56469,40600
56131,40599
55819,40728
55579,40967
55450,41280
55449,41618
55578,41930
55598,41950
54512,41950
54549,41859
54550,41641
54545,41629
54962,41212
55027,41114
55027,41114
55050,41000
55050,40124
56212,38962
56277,38864
56299,38750
56300,38750
56300,33624
56624,33300
56918,33300
56996,33378
57160,33446
57338,33446
57502,33379
57628,33253
57696,33089
57696,32911
57629,32747
57503,32621
57339,32553
57161,32553
56997,32620
56918,32700
56500,32700
56385,32722
56287,32787
55787,33287
55722,33385
55700,33500
55700,38625
54537,39787
54472,39885
54450,40000
54450,40246
54441,40238
54349,40200
54300,40200
54300,38624
55462,37462
55527,37364
55549,37250
55550,37250
55550,32874
56124,32300
56918,32300
56996,32378
57160,32446
57338,32446
57502,32379
57628,32253
57696,32089
57696,31911
57629,31747
57503,31621
57339,31553
57161,31553
56997,31620
56918,31700
56000,31700
55885,31722
55787,31787
55037,32537
54972,32635
54950,32750
54950,37125
53787,38287
53722,38385
53700,38500
53700,40200
53650,40200
53558,40238
53488,40308
53450,40400
53450,40422
53311,40284
53300,40279
53300,38374
54712,36962
54712,36962
54751,36903
54777,36864
54777,36864
54800,36750
54800,32624
56124,31300
56918,31300
56996,31378
57160,31446
57338,31446
57502,31379
57628,31253
57696,31089
57696,30911
57629,30747
57503,30621
57339,30553
57161,30553
56997,30620
56918,30700
56000,30700
55967,30706
56374,30300
56918,30300
56996,30378
57160,30446
57338,30446
57502,30379
57628,30253
57696,30089
57696,29911
57629,29747
57503,29621
57339,29553
57161,29553
56997,29620
56918,29700
56250,29700
56217,29706
56624,29300
56918,29300
56996,29378
57160,29446
57338,29446
57502,29379
57628,29253
57696,29089
57696,28911
57629,28747
57503,28621
57339,28553
57161,28553
56997,28620
56918,28700
56500,28700
56467,28706
56874,28300
56918,28300
56996,28378
57160,28446
57338,28446
57502,28379
57628,28253
57696,28089
57696,27911
57696,26911
57696,25911
57696,24911
57629,24747
57503,24621
57339,24553
57161,24553
56997,24620
56871,24746
56803,24910
56803,25088
56870,25252
56996,25378
57160,25446
57338,25446
57502,25379
57628,25253
57696,25089
57696,24911
57696,25911
57629,25747
57503,25621
57339,25553
57161,25553
56997,25620
56871,25746
56803,25910
56803,26088
56870,26252
56996,26378
57160,26446
57338,26446
57502,26379
57628,26253
57696,26089
57696,25911
57696,26911
57629,26747
57503,26621
57339,26553
57161,26553
56997,26620
56871,26746
56803,26910
56803,27088
56870,27252
56996,27378
57160,27446
57338,27446
57502,27379
57628,27253
57696,27089
57696,26911
57696,27911
57629,27747
57503,27621
57339,27553
57161,27553
56997,27620
56918,27700
56750,27700
56635,27722
56537,27787
56043,28282
56049,28250
56050,28250
56050,15750
56027,15635
55962,15537
54712,14287
54614,14222
54500,14200
47250,14200
47135,14222
47096,14248
47037,14287
46787,14537
46722,14635
46700,14750
46700,14778
46688,14783
46534,14938
46450,15140
46449,15358
46533,15561
46672,15700
46650,15700
46558,15738
46488,15808
46450,15900
46450,15999
46450,16137
46512,16200
46950,16200
46950,16192
47050,16192
47050,16200
47057,16200
47057,16300
47050,16300
47050,16737
47112,16800
47349,16800
47441,16761
47511,16691
47550,16599
47550,16577
47688,16715
47700,16720
47700,19250
47722,19364
47787,19462
47885,19527
48000,19550
51000,19550
51375,19550
51407,19581
51339,19553
51161,19553
50997,19620
50871,19746
50803,19910
50803,20088
50870,20252
50996,20378
51160,20446
51338,20446
51450,20400
51450,20599
51339,20553
51161,20553
50997,20620
50871,20746
50803,20910
50803,21088
50870,21252
50996,21378
51160,21446
51338,21446
51407,21418
51272,21553
51161,21553
50997,21620
50918,21700
50442,21700
50297,21555
50104,21475
49896,21474
49703,21554
49555,21702
49499,21835
49445,21703
49297,21555
49104,21475
48896,21474
48703,21554
48557,21700
48442,21700
48297,21555
48104,21475
47896,21474
47703,21554
47555,21702
47499,21835
47445,21703
47297,21555
47104,21475
46950,21474
46950,16737
46950,16300
46512,16300
46450,16362
46450,16500
46450,16599
46488,16691
46558,16761
46650,16800
46887,16800
46950,16737
46950,21474
46896,21474
46703,21554
46557,21700
46442,21700
46297,21555
46104,21475
45896,21474
45703,21554
45555,21702
45499,21835
45445,21703
45297,21555
45104,21475
44896,21474
44825,21504
44825,15487
44623,15000
44251,14627
43764,14425
43237,14424
42750,14626
42377,14998
42175,15485
42174,16012
42376,16499
42748,16872
43235,17074
43762,17075
44249,16873
44622,16501
44824,16014
44825,15487
44825,21504
44703,21554
44557,21700
44442,21700
44297,21555
44104,21475
43896,21474
43703,21554
43555,21702
43502,21828
43460,21727
43367,21702
43297,21773
43297,21632
43272,21539
43075,21470
42867,21481
42727,21539
42702,21632
43000,21929
43297,21632
43297,21773
43070,22000
43367,22297
43460,22272
43499,22162
43554,22297
43702,22444
43835,22500
43703,22554
43555,22702
43502,22828
43460,22727
43367,22702
43297,22773
43297,22632
43272,22539
43169,22503
43272,22460
43297,22367
43000,22070
42929,22141
42929,22000
42632,21702
42539,21727
42470,21924
42481,22132
42539,22272
42632,22297
42929,22000
42929,22141
42702,22367
42727,22460
42830,22496
42727,22539
42702,22632
43000,22929
43297,22632
43297,22773
43070,23000
43367,23297
43460,23272
43499,23162
43554,23297
43702,23444
43895,23524
44103,23525
44297,23445
44442,23300
44557,23300
44702,23444
44895,23524
45103,23525
45297,23445
45444,23297
45500,23164
45554,23297
45702,23444
45895,23524
46103,23525
46297,23445
46442,23300
46557,23300
46702,23444
46895,23524
47103,23525
47297,23445
47444,23297
47500,23164
47554,23297
47702,23444
47895,23524
48103,23525
48297,23445
48442,23300
48557,23300
48702,23444
48895,23524
49103,23525
49297,23445
49444,23297
49500,23164
49554,23297
49702,23444
49895,23524
50103,23525
50297,23445
50442,23300
50918,23300
50996,23378
51160,23446
51338,23446
51502,23379
51628,23253
51696,23089
51696,22977
52450,22224
52450,24375
51668,25157
51696,25089
51696,24911
51696,23911
51629,23747
51503,23621
51339,23553
51161,23553
50997,23620
50871,23746
50803,23910
50803,24088
50870,24252
50996,24378
51160,24446
51338,24446
51502,24379
51628,24253
51696,24089
51696,23911
51696,24911
51629,24747
51503,24621
51339,24553
51161,24553
50997,24620
50871,24746
50803,24910
50803,25088
50870,25252
50996,25378
51160,25446
51338,25446
51407,25418
51272,25553
51161,25553
50997,25620
50918,25700
50442,25700
50297,25555
50104,25475
49896,25474
49703,25554
49555,25702
49499,25835
49445,25703
49297,25555
49104,25475
48896,25474
48703,25554
48555,25702
48499,25835
48445,25703
48297,25555
48104,25475
47896,25474
47703,25554
47555,25702
47499,25835
47445,25703
47297,25555
47104,25475
46896,25474
46703,25554
46555,25702
46499,25835
46445,25703
46297,25555
46104,25475
45896,25474
45703,25554
45555,25702
45499,25835
45445,25703
45297,25555
45104,25475
44896,25474
44703,25554
44555,25702
44499,25835
44445,25703
44297,25555
44104,25475
43896,25474
43703,25554
43555,25702
43502,25828
43460,25727
43367,25702
43297,25773
43297,25632
43297,23367
43000,23070
42929,23141
42929,23000
42632,22702
42539,22727
42470,22924
42481,23132
42539,23272
42632,23297
42929,23000
42929,23141
42702,23367
42727,23460
42924,23529
43132,23518
43272,23460
43297,23367
43297,25632
43272,25539
43075,25470
42867,25481
42727,25539
42702,25632
43000,25929
43297,25632
43297,25773
43070,26000
43367,26297
43460,26272
43499,26162
43554,26297
43702,26444
43835,26500
43703,26554
43555,26702
43502,26828
43460,26727
43367,26702
43297,26773
43297,26632
43272,26539
43169,26503
43272,26460
43297,26367
43000,26070
42929,26141
42929,26000
42632,25702
42539,25727
42470,25924
42481,26132
42539,26272
42632,26297
42929,26000
42929,26141
42702,26367
42727,26460
42830,26496
42727,26539
42702,26632
43000,26929
43297,26632
43297,26773
43070,27000
43367,27297
43460,27272
43499,27162
43554,27297
43702,27444
43835,27500
43703,27554
43555,27702
43502,27828
43460,27727
43367,27702
43297,27773
43297,27632
43272,27539
43169,27503
43272,27460
43297,27367
43000,27070
42929,27141
42929,27000
42632,26702
42539,26727
42470,26924
42481,27132
42539,27272
42632,27297
42929,27000
42929,27141
42702,27367
42727,27460
42830,27496
42727,27539
42702,27632
43000,27929
43297,27632
43297,27773
43070,28000
43367,28297
43460,28272
43499,28162
43554,28297
43702,28444
43835,28500
43703,28554
43555,28702
43502,28828
43460,28727
43367,28702
43297,28773
43297,28632
43272,28539
43169,28503
43272,28460
43297,28367
43000,28070
42929,28141
42929,28000
42632,27702
42539,27727
42470,27924
42481,28132
42539,28272
42632,28297
42929,28000
42929,28141
42702,28367
42727,28460
42830,28496
42727,28539
42702,28632
43000,28929
43297,28632
43297,28773
43070,29000
43367,29297
43460,29272
43499,29162
43554,29297
43702,29444
43895,29524
44103,29525
44297,29445
44442,29300
44557,29300
44702,29444
44895,29524
45103,29525
45297,29445
45444,29297
45500,29164
45554,29297
45702,29444
45895,29524
46103,29525
46297,29445
46442,29300
46557,29300
46702,29444
46895,29524
47103,29525
47297,29445
47444,29297
47500,29164
47554,29297
47702,29444
47895,29524
48103,29525
48297,29445
48442,29300
48557,29300
48702,29444
48895,29524
49103,29525
49297,29445
49444,29297
49500,29164
49554,29297
49702,29444
49895,29524
50103,29525
50297,29445
50442,29300
50918,29300
50996,29378
51160,29446
51338,29446
51502,29379
51628,29253
51696,29089
51696,28977
54450,26224
54450,27375
51668,30157
51696,30089
51696,29911
51629,29747
51503,29621
51339,29553
51161,29553
50997,29620
50871,29746
50803,29910
50803,30088
50870,30252
50996,30378
51160,30446
51338,30446
51407,30418
51272,30553
51161,30553
50997,30620
50918,30700
50442,30700
50297,30555
50104,30475
49896,30474
49703,30554
49555,30702
49499,30835
49445,30703
49297,30555
49104,30475
48896,30474
48703,30554
48557,30700
48442,30700
48297,30555
48104,30475
47896,30474
47703,30554
47555,30702
47499,30835
47445,30703
47297,30555
47104,30475
46896,30474
46703,30554
46557,30700
46442,30700
46297,30555
46104,30475
45896,30474
45703,30554
45555,30702
45499,30835
45445,30703
45297,30555
45104,30475
44896,30474
44703,30554
44557,30700
44442,30700
44297,30555
44104,30475
43896,30474
43703,30554
43555,30702
43502,30828
43460,30727
43367,30702
43297,30773
43297,30632
43297,29367
43000,29070
42929,29141
42929,29000
42632,28702
42539,28727
42470,28924
42481,29132
42539,29272
42632,29297
42929,29000
42929,29141
42702,29367
42727,29460
42924,29529
43132,29518
43272,29460
43297,29367
43297,30632
43272,30539
43075,30470
42867,30481
42727,30539
42702,30632
43000,30929
43297,30632
43297,30773
43070,31000
43367,31297
43460,31272
43499,31162
43554,31297
43702,31444
43835,31500
43703,31554
43555,31702
43502,31828
43460,31727
43367,31702
43297,31773
43297,31632
43272,31539
43169,31503
43272,31460
43297,31367
43000,31070
42929,31141
42929,31000
42632,30702
42539,30727
42470,30924
42481,31132
42539,31272
42632,31297
42929,31000
42929,31141
42702,31367
42727,31460
42830,31496
42727,31539
42702,31632
43000,31929
43297,31632
43297,31773
43070,32000
43367,32297
43460,32272
43499,32162
43554,32297
43702,32444
43895,32524
44103,32525
44297,32445
44442,32300
44557,32300
44702,32444
44895,32524
45103,32525
45297,32445
45444,32297
45500,32164
45554,32297
45702,32444
45895,32524
46103,32525
46297,32445
46442,32300
46557,32300
46702,32444
46895,32524
47103,32525
47297,32445
47444,32297
47500,32164
47554,32297
47702,32444
47895,32524
48103,32525
48297,32445
48442,32300
48557,32300
48702,32444
48895,32524
49103,32525
49297,32445
49444,32297
49500,32164
49554,32297
49702,32444
49895,32524
50103,32525
50297,32445
50442,32300
50918,32300
50996,32378
51160,32446
51338,32446
51502,32379
51628,32253
51696,32089
51696,31977
51706,31967
51700,32000
51700,34125
51668,34157
51696,34089
51696,33911
51629,33747
51503,33621
51339,33553
51161,33553
50997,33620
50918,33700
48750,33700
48635,33722
48537,33787
48037,34287
47972,34385
47950,34500
47950,39750
47950,40199
47891,40199
47800,40237
47800,39750
47800,34374
48874,33300
50918,33300
50996,33378
51160,33446
51338,33446
51502,33379
51628,33253
51696,33089
51696,32911
51629,32747
51503,32621
51339,32553
51161,32553
50997,32620
50918,32700
48750,32700
48635,32722
48537,32787
47287,34037
47222,34135
47200,34250
47200,34714
47195,34703
47047,34555
46854,34475
46646,34474
46453,34554
46374,34632
46297,34555
46104,34475
45896,34474
45703,34554
45555,34702
45499,34835
45445,34703
45297,34555
45104,34475
44896,34474
44703,34554
44557,34700
44442,34700
44297,34555
44104,34475
43896,34474
43703,34554
43555,34702
43529,34763
43529,33075
43518,32867
43460,32727
43367,32702
43297,32773
43297,32632
43272,32539
43169,32503
43272,32460
43297,32367
43000,32070
42929,32141
42929,32000
42632,31702
42539,31727
42470,31924
42481,32132
42539,32272
42632,32297
42929,32000
42929,32141
42702,32367
42727,32460
42830,32496
42727,32539
42702,32632
43000,32929
43297,32632
43297,32773
43070,33000
43367,33297
43460,33272
43529,33075
43529,34763
43499,34835
43445,34703
43300,34557
43300,34442
43444,34297
43524,34104
43525,33896
43445,33703
43297,33555
43171,33502
43272,33460
43297,33367
43000,33070
42929,33141
42929,33000
42632,32702
42539,32727
42470,32924
42481,33132
42539,33272
42632,33297
42929,33000
42929,33141
42702,33367
42727,33460
42837,33499
42703,33554
42555,33702
42475,33895
42474,34103
42554,34297
42700,34442
42700,34557
42555,34702
42475,34895
42474,35103
42554,35297
42702,35444
42895,35524
43103,35525
43297,35445
43444,35297
43500,35164
43554,35297
43702,35444
43895,35524
44103,35525
44297,35445
44442,35300
44557,35300
44702,35444
44895,35524
45103,35525
45297,35445
45444,35297
45500,35164
45554,35297
45702,35444
45895,35524
46103,35525
46297,35445
46375,35367
46452,35444
46645,35524
46853,35525
47047,35445
47194,35297
47200,35285
47200,39750
47200,40125
47121,40204
47109,40200
46891,40199
46688,40283
46534,40438
46450,40640
46449,40858
46533,41061
46688,41215
46769,41249
46688,41283
46534,41438
46450,41640
46449,41858
46533,42061
46688,42215
46890,42299
47108,42300
47311,42216
47465,42061
47499,41980
47533,42061
47688,42215
47890,42299
48108,42300
48311,42216
48465,42061
48499,41980
48533,42061
48688,42215
48890,42299
49108,42300
49311,42216
49465,42061
49499,41980
49533,42061
49688,42215
49890,42299
50108,42300
50311,42216
50465,42061
50499,41980
50533,42061
50688,42215
50890,42299
51108,42300
51311,42216
51465,42061
51499,41980
51533,42061
51688,42215
51890,42299
52108,42300
52311,42216
52465,42061
52499,41980
52533,42061
52688,42215
52865,42289
53037,42462
53087,42495
45550,42495
45550,41281
45421,40969
45182,40729
44869,40600
44531,40599
44219,40728
43979,40967
43850,41280
43849,41618
43978,41930
44217,42170
44530,42299
44868,42300
45180,42171
45420,41932
45549,41619
45550,41281
45550,42495
41755,42495
41755,14005
58995,14005
58995,42495
" /> 
</g> 
</svg>
