<?xml version="1.0" standalone="no"?>
 <!DOCTYPE svg PUBLIC "-//W3C//DTD SVG 1.1//EN" 
 "http://www.w3.org/Graphics/SVG/1.1/DTD/svg11.dtd"> 
<svg xmlns="http://www.w3.org/2000/svg" version="1.1" 
    width="29.7002cm" height="21.0007cm" viewBox="0 0 116930 82680 ">
<title>SVG Picture created as capsense+fsr-F_Cu.svg date 2013/12/10 21:20:51 </title>
  <desc>Picture generated by PCBNEW </desc>
<g style="fill:#000000; fill-opacity:1;stroke:#000000; stroke-opacity:1;
stroke-linecap:round; stroke-linejoin:round; "
 transform="translate(0 0) scale(1 1)">
</g>
<g style="fill:#000000; fill-opacity:0.0; 
stroke:#000000; stroke-width:59.0551; stroke-opacity:1; 
stroke-linecap:round; stroke-linejoin:round;">
</g>
<g style="fill:#000000; fill-opacity:1.0; 
stroke:#000000; stroke-width:59.0551; stroke-opacity:1; 
stroke-linecap:round; stroke-linejoin:round;">
<circle cx="57250" cy="20000" r="167.323" /> 
<circle cx="57250" cy="21000" r="167.323" /> 
<circle cx="57250" cy="22000" r="167.323" /> 
<circle cx="57250" cy="23000" r="167.323" /> 
<circle cx="57250" cy="24000" r="167.323" /> 
<circle cx="57250" cy="25000" r="167.323" /> 
<circle cx="57250" cy="26000" r="167.323" /> 
<circle cx="57250" cy="27000" r="167.323" /> 
<circle cx="57250" cy="28000" r="167.323" /> 
<circle cx="57250" cy="29000" r="167.323" /> 
<circle cx="57250" cy="30000" r="167.323" /> 
<circle cx="57250" cy="31000" r="167.323" /> 
<circle cx="57250" cy="32000" r="167.323" /> 
<circle cx="57250" cy="33000" r="167.323" /> 
<circle cx="57250" cy="34000" r="167.323" /> 
<circle cx="57250" cy="35000" r="167.323" /> 
<circle cx="57250" cy="36000" r="167.323" /> 
<circle cx="51250" cy="36000" r="167.323" /> 
<circle cx="51250" cy="35000" r="167.323" /> 
<circle cx="51250" cy="34000" r="167.323" /> 
<circle cx="51250" cy="33000" r="167.323" /> 
<circle cx="51250" cy="32000" r="167.323" /> 
<circle cx="51250" cy="31000" r="167.323" /> 
<circle cx="51250" cy="30000" r="167.323" /> 
<circle cx="51250" cy="29000" r="167.323" /> 
<circle cx="51250" cy="28000" r="167.323" /> 
<circle cx="51250" cy="27000" r="167.323" /> 
<circle cx="51250" cy="26000" r="167.323" /> 
<circle cx="51250" cy="25000" r="167.323" /> 
<circle cx="51250" cy="24000" r="167.323" /> 
<circle cx="51250" cy="23000" r="167.323" /> 
<circle cx="51250" cy="22000" r="167.323" /> 
<circle cx="51250" cy="21000" r="167.323" /> 
<circle cx="51250" cy="20000" r="167.323" /> 
<circle cx="49000" cy="23000" r="245.472" /> 
<circle cx="50000" cy="23000" r="245.472" /> 
<circle cx="47000" cy="23000" r="245.472" /> 
<circle cx="48000" cy="23000" r="245.472" /> 
<circle cx="45000" cy="23000" r="245.472" /> 
<circle cx="46000" cy="23000" r="245.472" /> 
<circle cx="43000" cy="23000" r="245.472" /> 
<circle cx="44000" cy="23000" r="245.472" /> 
<circle cx="50000" cy="22000" r="245.472" /> 
<circle cx="49000" cy="22000" r="245.472" /> 
<circle cx="48000" cy="22000" r="245.472" /> 
<circle cx="47000" cy="22000" r="245.472" /> 
<circle cx="46000" cy="22000" r="245.472" /> 
<circle cx="45000" cy="22000" r="245.472" /> 
<circle cx="44000" cy="22000" r="245.472" /> 
<circle cx="43000" cy="22000" r="245.472" /> 
<circle cx="49000" cy="26000" r="245.472" /> 
<circle cx="50000" cy="26000" r="245.472" /> 
<circle cx="47000" cy="26000" r="245.472" /> 
<circle cx="48000" cy="26000" r="245.472" /> 
<circle cx="45000" cy="26000" r="245.472" /> 
<circle cx="46000" cy="26000" r="245.472" /> 
<circle cx="43000" cy="26000" r="245.472" /> 
<circle cx="44000" cy="26000" r="245.472" /> 
<circle cx="50000" cy="27000" r="245.472" /> 
<circle cx="49000" cy="27000" r="245.472" /> 
<circle cx="48000" cy="27000" r="245.472" /> 
<circle cx="47000" cy="27000" r="245.472" /> 
<circle cx="46000" cy="27000" r="245.472" /> 
<circle cx="45000" cy="27000" r="245.472" /> 
<circle cx="44000" cy="27000" r="245.472" /> 
<circle cx="43000" cy="27000" r="245.472" /> 
<circle cx="49000" cy="28000" r="245.472" /> 
<circle cx="50000" cy="28000" r="245.472" /> 
<circle cx="47000" cy="28000" r="245.472" /> 
<circle cx="48000" cy="28000" r="245.472" /> 
<circle cx="45000" cy="28000" r="245.472" /> 
<circle cx="46000" cy="28000" r="245.472" /> 
<circle cx="43000" cy="28000" r="245.472" /> 
<circle cx="44000" cy="28000" r="245.472" /> 
<circle cx="50000" cy="29000" r="245.472" /> 
<circle cx="49000" cy="29000" r="245.472" /> 
<circle cx="48000" cy="29000" r="245.472" /> 
<circle cx="47000" cy="29000" r="245.472" /> 
<circle cx="46000" cy="29000" r="245.472" /> 
<circle cx="45000" cy="29000" r="245.472" /> 
<circle cx="44000" cy="29000" r="245.472" /> 
<circle cx="43000" cy="29000" r="245.472" /> 
<circle cx="49000" cy="31000" r="245.472" /> 
<circle cx="50000" cy="31000" r="245.472" /> 
<circle cx="47000" cy="31000" r="245.472" /> 
<circle cx="48000" cy="31000" r="245.472" /> 
<circle cx="45000" cy="31000" r="245.472" /> 
<circle cx="46000" cy="31000" r="245.472" /> 
<circle cx="43000" cy="31000" r="245.472" /> 
<circle cx="44000" cy="31000" r="245.472" /> 
<circle cx="50000" cy="32000" r="245.472" /> 
<circle cx="49000" cy="32000" r="245.472" /> 
<circle cx="48000" cy="32000" r="245.472" /> 
<circle cx="47000" cy="32000" r="245.472" /> 
<circle cx="46000" cy="32000" r="245.472" /> 
<circle cx="45000" cy="32000" r="245.472" /> 
<circle cx="44000" cy="32000" r="245.472" /> 
<circle cx="43000" cy="32000" r="245.472" /> 
<circle cx="45000" cy="35000" r="245.472" /> 
<circle cx="46000" cy="35000" r="245.472" /> 
<circle cx="43000" cy="35000" r="245.472" /> 
<circle cx="44000" cy="35000" r="245.472" /> 
<circle cx="43000" cy="33000" r="245.472" /> 
<circle cx="43000" cy="34000" r="245.472" /> 
<circle cx="43500" cy="15750" r="1045.47" /> 
<circle cx="57500" cy="15750" r="1045.47" /> 
<polyline style="fill-rule:evenodd;"
points="46729,16520
46729,15979
47270,15979
47270,16520
46729,16520
" /> 
<circle cx="47000" cy="15250" r="270.472" /> 
<circle cx="48000" cy="16250" r="270.472" /> 
<circle cx="48000" cy="15250" r="270.472" /> 
<circle cx="49000" cy="16250" r="270.472" /> 
<circle cx="49000" cy="15250" r="270.472" /> 
<circle cx="50000" cy="16250" r="270.472" /> 
<circle cx="50000" cy="15250" r="270.472" /> 
<circle cx="51000" cy="16250" r="270.472" /> 
<circle cx="51000" cy="15250" r="270.472" /> 
<circle cx="52000" cy="16250" r="270.472" /> 
<circle cx="52000" cy="15250" r="270.472" /> 
<circle cx="53000" cy="16250" r="270.472" /> 
<circle cx="53000" cy="15250" r="270.472" /> 
<circle cx="54000" cy="16250" r="270.472" /> 
<circle cx="54000" cy="15250" r="270.472" /> 
<circle cx="44700" cy="41450" r="570.472" /> 
<circle cx="56300" cy="41450" r="570.472" /> 
<polyline style="fill-rule:evenodd;"
points="53729,41020
53729,40479
54270,40479
54270,41020
53729,41020
" /> 
<circle cx="54000" cy="41750" r="270.472" /> 
<circle cx="53000" cy="40750" r="270.472" /> 
<circle cx="53000" cy="41750" r="270.472" /> 
<circle cx="52000" cy="40750" r="270.472" /> 
<circle cx="52000" cy="41750" r="270.472" /> 
<circle cx="51000" cy="40750" r="270.472" /> 
<circle cx="51000" cy="41750" r="270.472" /> 
<circle cx="50000" cy="40750" r="270.472" /> 
<circle cx="50000" cy="41750" r="270.472" /> 
<circle cx="49000" cy="40750" r="270.472" /> 
<circle cx="49000" cy="41750" r="270.472" /> 
<circle cx="48000" cy="40750" r="270.472" /> 
<circle cx="48000" cy="41750" r="270.472" /> 
<circle cx="47000" cy="40750" r="270.472" /> 
<circle cx="47000" cy="41750" r="270.472" /> 
<circle cx="46750" cy="35000" r="245.472" /> 
<circle cx="49750" cy="35000" r="245.472" /> 
</g> 
</svg>
