<?xml version="1.0" standalone="no"?>
 <!DOCTYPE svg PUBLIC "-//W3C//DTD SVG 1.1//EN" 
 "http://www.w3.org/Graphics/SVG/1.1/DTD/svg11.dtd"> 
<svg xmlns="http://www.w3.org/2000/svg" version="1.1" 
    width="29.7002cm" height="21.0007cm" viewBox="0 0 116930 82680 ">
<title>SVG Picture created as capsense+fsr-F_SilkS.svg date 2013/12/10 21:20:51 </title>
  <desc>Picture generated by PCBNEW </desc>
<g style="fill:#000000; fill-opacity:1;stroke:#000000; stroke-opacity:1;
stroke-linecap:round; stroke-linejoin:round; "
 transform="translate(0 0) scale(1 1)">
</g>
<g style="fill:#000000; fill-opacity:0.0; 
stroke:#000000; stroke-width:59.0551; stroke-opacity:1; 
stroke-linecap:round; stroke-linejoin:round;">
<path d="M57750 18500
L57750 37500
" />
<path d="M57750 37500
L50750 37500
" />
<path d="M50750 37500
L50750 18500
" />
<path d="M50750 18500
L57750 18500
" />
</g>
<g style="fill:#000000; fill-opacity:0.0; 
stroke:#000000; stroke-width:150; stroke-opacity:1; 
stroke-linecap:round; stroke-linejoin:round;">
<path d="M49000 23000
L50000 23000
" />
<circle cx="49000" cy="23000" r="559.017" /> 
<path d="M47000 23000
L48000 23000
" />
<circle cx="47000" cy="23000" r="559.017" /> 
<path d="M45000 23000
L46000 23000
" />
<circle cx="45000" cy="23000" r="559.017" /> 
<path d="M43000 23000
L44000 23000
" />
<circle cx="43000" cy="23000" r="559.017" /> 
<path d="M50000 22000
L49000 22000
" />
<circle cx="50000" cy="22000" r="559.017" /> 
<path d="M48000 22000
L47000 22000
" />
<circle cx="48000" cy="22000" r="559.017" /> 
<path d="M46000 22000
L45000 22000
" />
<circle cx="46000" cy="22000" r="559.017" /> 
<path d="M44000 22000
L43000 22000
" />
<circle cx="44000" cy="22000" r="559.017" /> 
<path d="M49000 26000
L50000 26000
" />
<circle cx="49000" cy="26000" r="559.017" /> 
<path d="M47000 26000
L48000 26000
" />
<circle cx="47000" cy="26000" r="559.017" /> 
<path d="M45000 26000
L46000 26000
" />
<circle cx="45000" cy="26000" r="559.017" /> 
<path d="M43000 26000
L44000 26000
" />
<circle cx="43000" cy="26000" r="559.017" /> 
<path d="M50000 27000
L49000 27000
" />
<circle cx="50000" cy="27000" r="559.017" /> 
<path d="M48000 27000
L47000 27000
" />
<circle cx="48000" cy="27000" r="559.017" /> 
<path d="M46000 27000
L45000 27000
" />
<circle cx="46000" cy="27000" r="559.017" /> 
<path d="M44000 27000
L43000 27000
" />
<circle cx="44000" cy="27000" r="559.017" /> 
<path d="M49000 28000
L50000 28000
" />
<circle cx="49000" cy="28000" r="559.017" /> 
<path d="M47000 28000
L48000 28000
" />
<circle cx="47000" cy="28000" r="559.017" /> 
<path d="M45000 28000
L46000 28000
" />
<circle cx="45000" cy="28000" r="559.017" /> 
<path d="M43000 28000
L44000 28000
" />
<circle cx="43000" cy="28000" r="559.017" /> 
<path d="M50000 29000
L49000 29000
" />
<circle cx="50000" cy="29000" r="559.017" /> 
<path d="M48000 29000
L47000 29000
" />
<circle cx="48000" cy="29000" r="559.017" /> 
<path d="M46000 29000
L45000 29000
" />
<circle cx="46000" cy="29000" r="559.017" /> 
<path d="M44000 29000
L43000 29000
" />
<circle cx="44000" cy="29000" r="559.017" /> 
<path d="M49000 31000
L50000 31000
" />
<circle cx="49000" cy="31000" r="559.017" /> 
<path d="M47000 31000
L48000 31000
" />
<circle cx="47000" cy="31000" r="559.017" /> 
<path d="M45000 31000
L46000 31000
" />
<circle cx="45000" cy="31000" r="559.017" /> 
<path d="M43000 31000
L44000 31000
" />
<circle cx="43000" cy="31000" r="559.017" /> 
<path d="M50000 32000
L49000 32000
" />
<circle cx="50000" cy="32000" r="559.017" /> 
<path d="M48000 32000
L47000 32000
" />
<circle cx="48000" cy="32000" r="559.017" /> 
<path d="M46000 32000
L45000 32000
" />
<circle cx="46000" cy="32000" r="559.017" /> 
<path d="M44000 32000
L43000 32000
" />
<circle cx="44000" cy="32000" r="559.017" /> 
<path d="M45000 35000
L46000 35000
" />
<circle cx="45000" cy="35000" r="559.017" /> 
<path d="M43000 35000
L44000 35000
" />
<circle cx="43000" cy="35000" r="559.017" /> 
<path d="M43000 33000
L43000 34000
" />
<circle cx="43000" cy="33000" r="559.017" /> 
</g>
<g style="fill:#000000; fill-opacity:0.0; 
stroke:#000000; stroke-width:120; stroke-opacity:1; 
stroke-linecap:round; stroke-linejoin:round;">
<path d="M49500 17450
L49500 17150
" />
<path d="M49500 17150
L45500 17150
" />
<path d="M45500 17150
L45500 14350
" />
<path d="M45500 14350
L55500 14350
" />
<path d="M55500 14350
L55500 17150
" />
<path d="M55500 17150
L51500 17150
" />
<path d="M51500 17150
L51500 17450
" />
<path d="M42700 17450
L42700 14050
" />
<path d="M42700 14050
L58300 14050
" />
<path d="M58300 14050
L58300 17450
" />
<path d="M58300 17450
L42700 17450
" />
<path d="M46400 16250
L45900 15950
" />
<path d="M45900 15950
L45900 16550
" />
<path d="M45900 16550
L46400 16250
" />
<path d="M45600 40250
L45600 42050
" />
<path d="M45600 42050
L45100 42550
" />
<path d="M45100 42550
L44300 42550
" />
<path d="M44300 42550
L43800 42050
" />
<path d="M43800 42050
L43800 40250
" />
<path d="M57200 40250
L57200 42050
" />
<path d="M57200 42050
L56700 42550
" />
<path d="M56700 42550
L55900 42550
" />
<path d="M55900 42550
L55400 42050
" />
<path d="M55400 42050
L55400 40250
" />
<path d="M43000 40250
L43000 43000
" />
<path d="M43000 43000
L44250 47000
" />
<path d="M44250 47000
L45750 47000
" />
<path d="M45750 47000
L46500 45250
" />
<path d="M43000 40250
L58000 40250
" />
<path d="M58000 40250
L58000 43000
" />
<path d="M58000 43000
L56750 47000
" />
<path d="M56750 47000
L55250 47000
" />
<path d="M46500 45250
L54400 45250
" />
<path d="M55250 47000
L54400 45250
" />
<path d="M53900 45250
L53500 44450
" />
<path d="M53500 44450
L53100 45250
" />
</g>
<g style="fill:#000000; fill-opacity:0.0; 
stroke:#000000; stroke-width:80; stroke-opacity:1; 
stroke-linecap:round; stroke-linejoin:round;">
<path d="M46750 35000
L46950 35000
" />
<path d="M49750 35000
L49550 35000
" />
<path d="M49550 35000
L49550 34600
" />
<path d="M49550 34600
L46950 34600
" />
<path d="M46950 34600
L46950 35400
" />
<path d="M46950 35400
L49550 35400
" />
<path d="M49550 35400
L49550 35000
" />
<path d="M46950 34800
L47150 34600
" />
</g>
<g style="fill:#000000; fill-opacity:0.0; 
stroke:#000000; stroke-width:59.0551; stroke-opacity:1; 
stroke-linecap:round; stroke-linejoin:round;">
<path d="M52815 24506
L52815 24318
" />
<path d="M52928 24543
L52534 24412
L52928 24281
" />
<path d="M52928 24149
L52534 24149
L52815 24018
L52534 23887
L52928 23887
" />
<path d="M52928 23493
L52928 23718
" />
<path d="M52928 23606
L52534 23606
L52590 23643
L52628 23681
L52646 23718
" />
<path d="M51815 25862
L51815 25674
" />
<path d="M51928 25899
L51534 25768
L51928 25637
" />
<path d="M51928 25281
L51740 25412
" />
<path d="M51928 25505
L51534 25505
L51534 25356
L51553 25318
L51571 25299
L51609 25281
L51665 25281
L51703 25299
L51721 25318
L51740 25356
L51740 25505
" />
<path d="M51928 25112
L51534 25112
L51534 25018
L51553 24962
L51590 24924
L51628 24906
L51703 24887
L51759 24887
L51834 24906
L51871 24924
L51909 24962
L51928 25018
L51928 25112
" />
<path d="M51534 24718
L51853 24718
L51890 24699
L51909 24681
L51928 24643
L51928 24568
L51909 24531
L51890 24512
L51853 24493
L51534 24493
" />
<path d="M51928 24306
L51534 24306
" />
<path d="M51928 24118
L51534 24118
L51928 23893
L51534 23893
" />
<path d="M51534 23631
L51534 23556
L51553 23518
L51590 23481
L51665 23462
L51796 23462
L51871 23481
L51909 23518
L51928 23556
L51928 23631
L51909 23668
L51871 23706
L51796 23724
L51665 23724
L51590 23706
L51553 23668
L51534 23631
" />
<path d="M51778 23293
L51778 22993
" />
<path d="M51928 22806
L51534 22806
L51815 22675
L51534 22543
L51928 22543
" />
<path d="M51928 22356
L51534 22356
" />
<path d="M51890 21943
L51909 21962
L51928 22018
L51928 22056
L51909 22112
L51871 22150
L51834 22168
L51759 22187
L51703 22187
L51628 22168
L51590 22150
L51553 22112
L51534 22056
L51534 22018
L51553 21962
L51571 21943
" />
<path d="M51928 21550
L51740 21681
" />
<path d="M51928 21775
L51534 21775
L51534 21625
L51553 21587
L51571 21568
L51609 21550
L51665 21550
L51703 21568
L51721 21587
L51740 21625
L51740 21775
" />
<path d="M51534 21306
L51534 21231
L51553 21194
L51590 21156
L51665 21137
L51796 21137
L51871 21156
L51909 21194
L51928 21231
L51928 21306
L51909 21344
L51871 21381
L51796 21400
L51665 21400
L51590 21381
L51553 21344
L51534 21306
" />
</g>
<g style="fill:#000000; fill-opacity:0.0; 
stroke:#000000; stroke-width:80; stroke-opacity:1; 
stroke-linecap:round; stroke-linejoin:round;">
<path d="M49016 24248
L48850 23986
" />
<path d="M48730 24248
L48730 23698
L48921 23698
L48969 23725
L48992 23751
L49016 23803
L49016 23882
L48992 23934
L48969 23960
L48921 23986
L48730 23986
" />
<path d="M49492 24248
L49207 24248
" />
<path d="M49350 24248
L49350 23698
L49302 23777
L49254 23829
L49207 23855
" />
<path d="M47016 24248
L46850 23986
" />
<path d="M46730 24248
L46730 23698
L46921 23698
L46969 23725
L46992 23751
L47016 23803
L47016 23882
L46992 23934
L46969 23960
L46921 23986
L46730 23986
" />
<path d="M47207 23751
L47230 23725
L47278 23698
L47397 23698
L47445 23725
L47469 23751
L47492 23803
L47492 23855
L47469 23934
L47183 24248
L47492 24248
" />
<path d="M45016 24248
L44850 23986
" />
<path d="M44730 24248
L44730 23698
L44921 23698
L44969 23725
L44992 23751
L45016 23803
L45016 23882
L44992 23934
L44969 23960
L44921 23986
L44730 23986
" />
<path d="M45183 23698
L45492 23698
L45326 23908
L45397 23908
L45445 23934
L45469 23960
L45492 24013
L45492 24144
L45469 24196
L45445 24222
L45397 24248
L45254 24248
L45207 24222
L45183 24196
" />
<path d="M43016 24248
L42850 23986
" />
<path d="M42730 24248
L42730 23698
L42921 23698
L42969 23725
L42992 23751
L43016 23803
L43016 23882
L42992 23934
L42969 23960
L42921 23986
L42730 23986
" />
<path d="M43445 23882
L43445 24248
" />
<path d="M43326 23672
L43207 24065
L43516 24065
" />
<path d="M49816 21248
L49650 20986
" />
<path d="M49530 21248
L49530 20698
L49721 20698
L49769 20725
L49792 20751
L49816 20803
L49816 20882
L49792 20934
L49769 20960
L49721 20986
L49530 20986
" />
<path d="M50269 20698
L50030 20698
L50007 20960
L50030 20934
L50078 20908
L50197 20908
L50245 20934
L50269 20960
L50292 21013
L50292 21144
L50269 21196
L50245 21222
L50197 21248
L50078 21248
L50030 21222
L50007 21196
" />
<path d="M47816 21248
L47650 20986
" />
<path d="M47530 21248
L47530 20698
L47721 20698
L47769 20725
L47792 20751
L47816 20803
L47816 20882
L47792 20934
L47769 20960
L47721 20986
L47530 20986
" />
<path d="M48245 20698
L48150 20698
L48102 20725
L48078 20751
L48030 20829
L48007 20934
L48007 21144
L48030 21196
L48054 21222
L48102 21248
L48197 21248
L48245 21222
L48269 21196
L48292 21144
L48292 21013
L48269 20960
L48245 20934
L48197 20908
L48102 20908
L48054 20934
L48030 20960
L48007 21013
" />
<path d="M45816 21248
L45650 20986
" />
<path d="M45530 21248
L45530 20698
L45721 20698
L45769 20725
L45792 20751
L45816 20803
L45816 20882
L45792 20934
L45769 20960
L45721 20986
L45530 20986
" />
<path d="M45983 20698
L46316 20698
L46102 21248
" />
<path d="M43816 21248
L43650 20986
" />
<path d="M43530 21248
L43530 20698
L43721 20698
L43769 20725
L43792 20751
L43816 20803
L43816 20882
L43792 20934
L43769 20960
L43721 20986
L43530 20986
" />
<path d="M44102 20934
L44054 20908
L44030 20882
L44007 20829
L44007 20803
L44030 20751
L44054 20725
L44102 20698
L44197 20698
L44245 20725
L44269 20751
L44292 20803
L44292 20829
L44269 20882
L44245 20908
L44197 20934
L44102 20934
L44054 20960
L44030 20986
L44007 21039
L44007 21144
L44030 21196
L44054 21222
L44102 21248
L44197 21248
L44245 21222
L44269 21196
L44292 21144
L44292 21039
L44269 20986
L44245 20960
L44197 20934
" />
<path d="M49016 27248
L48850 26986
" />
<path d="M48730 27248
L48730 26698
L48921 26698
L48969 26725
L48992 26751
L49016 26803
L49016 26882
L48992 26934
L48969 26960
L48921 26986
L48730 26986
" />
<path d="M49254 27248
L49350 27248
L49397 27222
L49421 27196
L49469 27117
L49492 27013
L49492 26803
L49469 26751
L49445 26725
L49397 26698
L49302 26698
L49254 26725
L49230 26751
L49207 26803
L49207 26934
L49230 26986
L49254 27013
L49302 27039
L49397 27039
L49445 27013
L49469 26986
L49492 26934
" />
<path d="M46778 27248
L46611 26986
" />
<path d="M46492 27248
L46492 26698
L46683 26698
L46730 26725
L46754 26751
L46778 26803
L46778 26882
L46754 26934
L46730 26960
L46683 26986
L46492 26986
" />
<path d="M47254 27248
L46969 27248
" />
<path d="M47111 27248
L47111 26698
L47064 26777
L47016 26829
L46969 26855
" />
<path d="M47564 26698
L47611 26698
L47659 26725
L47683 26751
L47707 26803
L47730 26908
L47730 27039
L47707 27144
L47683 27196
L47659 27222
L47611 27248
L47564 27248
L47516 27222
L47492 27196
L47469 27144
L47445 27039
L47445 26908
L47469 26803
L47492 26751
L47516 26725
L47564 26698
" />
<path d="M44778 27248
L44611 26986
" />
<path d="M44492 27248
L44492 26698
L44683 26698
L44730 26725
L44754 26751
L44778 26803
L44778 26882
L44754 26934
L44730 26960
L44683 26986
L44492 26986
" />
<path d="M45254 27248
L44969 27248
" />
<path d="M45111 27248
L45111 26698
L45064 26777
L45016 26829
L44969 26855
" />
<path d="M45730 27248
L45445 27248
" />
<path d="M45588 27248
L45588 26698
L45540 26777
L45492 26829
L45445 26855
" />
<path d="M42778 27248
L42611 26986
" />
<path d="M42492 27248
L42492 26698
L42683 26698
L42730 26725
L42754 26751
L42778 26803
L42778 26882
L42754 26934
L42730 26960
L42683 26986
L42492 26986
" />
<path d="M43254 27248
L42969 27248
" />
<path d="M43111 27248
L43111 26698
L43064 26777
L43016 26829
L42969 26855
" />
<path d="M43445 26751
L43469 26725
L43516 26698
L43635 26698
L43683 26725
L43707 26751
L43730 26803
L43730 26855
L43707 26934
L43421 27248
L43730 27248
" />
<path d="M49578 26248
L49411 25986
" />
<path d="M49292 26248
L49292 25698
L49483 25698
L49530 25725
L49554 25751
L49578 25803
L49578 25882
L49554 25934
L49530 25960
L49483 25986
L49292 25986
" />
<path d="M50054 26248
L49769 26248
" />
<path d="M49911 26248
L49911 25698
L49864 25777
L49816 25829
L49769 25855
" />
<path d="M50221 25698
L50530 25698
L50364 25908
L50435 25908
L50483 25934
L50507 25960
L50530 26013
L50530 26144
L50507 26196
L50483 26222
L50435 26248
L50292 26248
L50245 26222
L50221 26196
" />
<path d="M47578 26248
L47411 25986
" />
<path d="M47292 26248
L47292 25698
L47483 25698
L47530 25725
L47554 25751
L47578 25803
L47578 25882
L47554 25934
L47530 25960
L47483 25986
L47292 25986
" />
<path d="M48054 26248
L47769 26248
" />
<path d="M47911 26248
L47911 25698
L47864 25777
L47816 25829
L47769 25855
" />
<path d="M48483 25882
L48483 26248
" />
<path d="M48364 25672
L48245 26065
L48554 26065
" />
<path d="M45578 26248
L45411 25986
" />
<path d="M45292 26248
L45292 25698
L45483 25698
L45530 25725
L45554 25751
L45578 25803
L45578 25882
L45554 25934
L45530 25960
L45483 25986
L45292 25986
" />
<path d="M46054 26248
L45769 26248
" />
<path d="M45911 26248
L45911 25698
L45864 25777
L45816 25829
L45769 25855
" />
<path d="M46507 25698
L46269 25698
L46245 25960
L46269 25934
L46316 25908
L46435 25908
L46483 25934
L46507 25960
L46530 26013
L46530 26144
L46507 26196
L46483 26222
L46435 26248
L46316 26248
L46269 26222
L46245 26196
" />
<path d="M43578 26248
L43411 25986
" />
<path d="M43292 26248
L43292 25698
L43483 25698
L43530 25725
L43554 25751
L43578 25803
L43578 25882
L43554 25934
L43530 25960
L43483 25986
L43292 25986
" />
<path d="M44054 26248
L43769 26248
" />
<path d="M43911 26248
L43911 25698
L43864 25777
L43816 25829
L43769 25855
" />
<path d="M44483 25698
L44388 25698
L44340 25725
L44316 25751
L44269 25829
L44245 25934
L44245 26144
L44269 26196
L44292 26222
L44340 26248
L44435 26248
L44483 26222
L44507 26196
L44530 26144
L44530 26013
L44507 25960
L44483 25934
L44435 25908
L44340 25908
L44292 25934
L44269 25960
L44245 26013
" />
<path d="M48778 29248
L48611 28986
" />
<path d="M48492 29248
L48492 28698
L48683 28698
L48730 28725
L48754 28751
L48778 28803
L48778 28882
L48754 28934
L48730 28960
L48683 28986
L48492 28986
" />
<path d="M49254 29248
L48969 29248
" />
<path d="M49111 29248
L49111 28698
L49064 28777
L49016 28829
L48969 28855
" />
<path d="M49421 28698
L49754 28698
L49540 29248
" />
<path d="M46778 29248
L46611 28986
" />
<path d="M46492 29248
L46492 28698
L46683 28698
L46730 28725
L46754 28751
L46778 28803
L46778 28882
L46754 28934
L46730 28960
L46683 28986
L46492 28986
" />
<path d="M47254 29248
L46969 29248
" />
<path d="M47111 29248
L47111 28698
L47064 28777
L47016 28829
L46969 28855
" />
<path d="M47540 28934
L47492 28908
L47469 28882
L47445 28829
L47445 28803
L47469 28751
L47492 28725
L47540 28698
L47635 28698
L47683 28725
L47707 28751
L47730 28803
L47730 28829
L47707 28882
L47683 28908
L47635 28934
L47540 28934
L47492 28960
L47469 28986
L47445 29039
L47445 29144
L47469 29196
L47492 29222
L47540 29248
L47635 29248
L47683 29222
L47707 29196
L47730 29144
L47730 29039
L47707 28986
L47683 28960
L47635 28934
" />
<path d="M44778 29248
L44611 28986
" />
<path d="M44492 29248
L44492 28698
L44683 28698
L44730 28725
L44754 28751
L44778 28803
L44778 28882
L44754 28934
L44730 28960
L44683 28986
L44492 28986
" />
<path d="M45254 29248
L44969 29248
" />
<path d="M45111 29248
L45111 28698
L45064 28777
L45016 28829
L44969 28855
" />
<path d="M45492 29248
L45588 29248
L45635 29222
L45659 29196
L45707 29117
L45730 29013
L45730 28803
L45707 28751
L45683 28725
L45635 28698
L45540 28698
L45492 28725
L45469 28751
L45445 28803
L45445 28934
L45469 28986
L45492 29013
L45540 29039
L45635 29039
L45683 29013
L45707 28986
L45730 28934
" />
<path d="M42778 29248
L42611 28986
" />
<path d="M42492 29248
L42492 28698
L42683 28698
L42730 28725
L42754 28751
L42778 28803
L42778 28882
L42754 28934
L42730 28960
L42683 28986
L42492 28986
" />
<path d="M42969 28751
L42992 28725
L43040 28698
L43159 28698
L43207 28725
L43230 28751
L43254 28803
L43254 28855
L43230 28934
L42945 29248
L43254 29248
" />
<path d="M43564 28698
L43611 28698
L43659 28725
L43683 28751
L43707 28803
L43730 28908
L43730 29039
L43707 29144
L43683 29196
L43659 29222
L43611 29248
L43564 29248
L43516 29222
L43492 29196
L43469 29144
L43445 29039
L43445 28908
L43469 28803
L43492 28751
L43516 28725
L43564 28698
" />
<path d="M49578 28248
L49411 27986
" />
<path d="M49292 28248
L49292 27698
L49483 27698
L49530 27725
L49554 27751
L49578 27803
L49578 27882
L49554 27934
L49530 27960
L49483 27986
L49292 27986
" />
<path d="M49769 27751
L49792 27725
L49840 27698
L49959 27698
L50007 27725
L50030 27751
L50054 27803
L50054 27855
L50030 27934
L49745 28248
L50054 28248
" />
<path d="M50530 28248
L50245 28248
" />
<path d="M50388 28248
L50388 27698
L50340 27777
L50292 27829
L50245 27855
" />
<path d="M47578 28248
L47411 27986
" />
<path d="M47292 28248
L47292 27698
L47483 27698
L47530 27725
L47554 27751
L47578 27803
L47578 27882
L47554 27934
L47530 27960
L47483 27986
L47292 27986
" />
<path d="M47769 27751
L47792 27725
L47840 27698
L47959 27698
L48007 27725
L48030 27751
L48054 27803
L48054 27855
L48030 27934
L47745 28248
L48054 28248
" />
<path d="M48245 27751
L48269 27725
L48316 27698
L48435 27698
L48483 27725
L48507 27751
L48530 27803
L48530 27855
L48507 27934
L48221 28248
L48530 28248
" />
<path d="M45578 28248
L45411 27986
" />
<path d="M45292 28248
L45292 27698
L45483 27698
L45530 27725
L45554 27751
L45578 27803
L45578 27882
L45554 27934
L45530 27960
L45483 27986
L45292 27986
" />
<path d="M45769 27751
L45792 27725
L45840 27698
L45959 27698
L46007 27725
L46030 27751
L46054 27803
L46054 27855
L46030 27934
L45745 28248
L46054 28248
" />
<path d="M46221 27698
L46530 27698
L46364 27908
L46435 27908
L46483 27934
L46507 27960
L46530 28013
L46530 28144
L46507 28196
L46483 28222
L46435 28248
L46292 28248
L46245 28222
L46221 28196
" />
<path d="M43578 28248
L43411 27986
" />
<path d="M43292 28248
L43292 27698
L43483 27698
L43530 27725
L43554 27751
L43578 27803
L43578 27882
L43554 27934
L43530 27960
L43483 27986
L43292 27986
" />
<path d="M43769 27751
L43792 27725
L43840 27698
L43959 27698
L44007 27725
L44030 27751
L44054 27803
L44054 27855
L44030 27934
L43745 28248
L44054 28248
" />
<path d="M44483 27882
L44483 28248
" />
<path d="M44364 27672
L44245 28065
L44554 28065
" />
<path d="M48778 32248
L48611 31986
" />
<path d="M48492 32248
L48492 31698
L48683 31698
L48730 31725
L48754 31751
L48778 31803
L48778 31882
L48754 31934
L48730 31960
L48683 31986
L48492 31986
" />
<path d="M48969 31751
L48992 31725
L49040 31698
L49159 31698
L49207 31725
L49230 31751
L49254 31803
L49254 31855
L49230 31934
L48945 32248
L49254 32248
" />
<path d="M49707 31698
L49469 31698
L49445 31960
L49469 31934
L49516 31908
L49635 31908
L49683 31934
L49707 31960
L49730 32013
L49730 32144
L49707 32196
L49683 32222
L49635 32248
L49516 32248
L49469 32222
L49445 32196
" />
<path d="M46778 32248
L46611 31986
" />
<path d="M46492 32248
L46492 31698
L46683 31698
L46730 31725
L46754 31751
L46778 31803
L46778 31882
L46754 31934
L46730 31960
L46683 31986
L46492 31986
" />
<path d="M46969 31751
L46992 31725
L47040 31698
L47159 31698
L47207 31725
L47230 31751
L47254 31803
L47254 31855
L47230 31934
L46945 32248
L47254 32248
" />
<path d="M47683 31698
L47588 31698
L47540 31725
L47516 31751
L47469 31829
L47445 31934
L47445 32144
L47469 32196
L47492 32222
L47540 32248
L47635 32248
L47683 32222
L47707 32196
L47730 32144
L47730 32013
L47707 31960
L47683 31934
L47635 31908
L47540 31908
L47492 31934
L47469 31960
L47445 32013
" />
<path d="M44778 32248
L44611 31986
" />
<path d="M44492 32248
L44492 31698
L44683 31698
L44730 31725
L44754 31751
L44778 31803
L44778 31882
L44754 31934
L44730 31960
L44683 31986
L44492 31986
" />
<path d="M44969 31751
L44992 31725
L45040 31698
L45159 31698
L45207 31725
L45230 31751
L45254 31803
L45254 31855
L45230 31934
L44945 32248
L45254 32248
" />
<path d="M45421 31698
L45754 31698
L45540 32248
" />
<path d="M42778 32248
L42611 31986
" />
<path d="M42492 32248
L42492 31698
L42683 31698
L42730 31725
L42754 31751
L42778 31803
L42778 31882
L42754 31934
L42730 31960
L42683 31986
L42492 31986
" />
<path d="M42969 31751
L42992 31725
L43040 31698
L43159 31698
L43207 31725
L43230 31751
L43254 31803
L43254 31855
L43230 31934
L42945 32248
L43254 32248
" />
<path d="M43540 31934
L43492 31908
L43469 31882
L43445 31829
L43445 31803
L43469 31751
L43492 31725
L43540 31698
L43635 31698
L43683 31725
L43707 31751
L43730 31803
L43730 31829
L43707 31882
L43683 31908
L43635 31934
L43540 31934
L43492 31960
L43469 31986
L43445 32039
L43445 32144
L43469 32196
L43492 32222
L43540 32248
L43635 32248
L43683 32222
L43707 32196
L43730 32144
L43730 32039
L43707 31986
L43683 31960
L43635 31934
" />
<path d="M49578 31248
L49411 30986
" />
<path d="M49292 31248
L49292 30698
L49483 30698
L49530 30725
L49554 30751
L49578 30803
L49578 30882
L49554 30934
L49530 30960
L49483 30986
L49292 30986
" />
<path d="M49769 30751
L49792 30725
L49840 30698
L49959 30698
L50007 30725
L50030 30751
L50054 30803
L50054 30855
L50030 30934
L49745 31248
L50054 31248
" />
<path d="M50292 31248
L50388 31248
L50435 31222
L50459 31196
L50507 31117
L50530 31013
L50530 30803
L50507 30751
L50483 30725
L50435 30698
L50340 30698
L50292 30725
L50269 30751
L50245 30803
L50245 30934
L50269 30986
L50292 31013
L50340 31039
L50435 31039
L50483 31013
L50507 30986
L50530 30934
" />
<path d="M47578 31248
L47411 30986
" />
<path d="M47292 31248
L47292 30698
L47483 30698
L47530 30725
L47554 30751
L47578 30803
L47578 30882
L47554 30934
L47530 30960
L47483 30986
L47292 30986
" />
<path d="M47745 30698
L48054 30698
L47888 30908
L47959 30908
L48007 30934
L48030 30960
L48054 31013
L48054 31144
L48030 31196
L48007 31222
L47959 31248
L47816 31248
L47769 31222
L47745 31196
" />
<path d="M48364 30698
L48411 30698
L48459 30725
L48483 30751
L48507 30803
L48530 30908
L48530 31039
L48507 31144
L48483 31196
L48459 31222
L48411 31248
L48364 31248
L48316 31222
L48292 31196
L48269 31144
L48245 31039
L48245 30908
L48269 30803
L48292 30751
L48316 30725
L48364 30698
" />
<path d="M45578 31248
L45411 30986
" />
<path d="M45292 31248
L45292 30698
L45483 30698
L45530 30725
L45554 30751
L45578 30803
L45578 30882
L45554 30934
L45530 30960
L45483 30986
L45292 30986
" />
<path d="M45745 30698
L46054 30698
L45888 30908
L45959 30908
L46007 30934
L46030 30960
L46054 31013
L46054 31144
L46030 31196
L46007 31222
L45959 31248
L45816 31248
L45769 31222
L45745 31196
" />
<path d="M46530 31248
L46245 31248
" />
<path d="M46388 31248
L46388 30698
L46340 30777
L46292 30829
L46245 30855
" />
<path d="M43578 31248
L43411 30986
" />
<path d="M43292 31248
L43292 30698
L43483 30698
L43530 30725
L43554 30751
L43578 30803
L43578 30882
L43554 30934
L43530 30960
L43483 30986
L43292 30986
" />
<path d="M43745 30698
L44054 30698
L43888 30908
L43959 30908
L44007 30934
L44030 30960
L44054 31013
L44054 31144
L44030 31196
L44007 31222
L43959 31248
L43816 31248
L43769 31222
L43745 31196
" />
<path d="M44245 30751
L44269 30725
L44316 30698
L44435 30698
L44483 30725
L44507 30751
L44530 30803
L44530 30855
L44507 30934
L44221 31248
L44530 31248
" />
<path d="M44778 36248
L44611 35986
" />
<path d="M44492 36248
L44492 35698
L44683 35698
L44730 35725
L44754 35751
L44778 35803
L44778 35882
L44754 35934
L44730 35960
L44683 35986
L44492 35986
" />
<path d="M44945 35698
L45254 35698
L45088 35908
L45159 35908
L45207 35934
L45230 35960
L45254 36013
L45254 36144
L45230 36196
L45207 36222
L45159 36248
L45016 36248
L44969 36222
L44945 36196
" />
<path d="M45683 35882
L45683 36248
" />
<path d="M45564 35672
L45445 36065
L45754 36065
" />
<path d="M42778 36248
L42611 35986
" />
<path d="M42492 36248
L42492 35698
L42683 35698
L42730 35725
L42754 35751
L42778 35803
L42778 35882
L42754 35934
L42730 35960
L42683 35986
L42492 35986
" />
<path d="M42945 35698
L43254 35698
L43088 35908
L43159 35908
L43207 35934
L43230 35960
L43254 36013
L43254 36144
L43230 36196
L43207 36222
L43159 36248
L43016 36248
L42969 36222
L42945 36196
" />
<path d="M43707 35698
L43469 35698
L43445 35960
L43469 35934
L43516 35908
L43635 35908
L43683 35934
L43707 35960
L43730 36013
L43730 36144
L43707 36196
L43683 36222
L43635 36248
L43516 36248
L43469 36222
L43445 36196
" />
<path d="M42248 33421
L41986 33588
" />
<path d="M42248 33707
L41698 33707
L41698 33516
L41725 33469
L41751 33445
L41803 33421
L41882 33421
L41934 33445
L41960 33469
L41986 33516
L41986 33707
" />
<path d="M41698 33254
L41698 32945
L41908 33111
L41908 33040
L41934 32992
L41960 32969
L42013 32945
L42144 32945
L42196 32969
L42222 32992
L42248 33040
L42248 33183
L42222 33230
L42196 33254
" />
<path d="M41698 32516
L41698 32611
L41725 32659
L41751 32683
L41829 32730
L41934 32754
L42144 32754
L42196 32730
L42222 32707
L42248 32659
L42248 32564
L42222 32516
L42196 32492
L42144 32469
L42013 32469
L41960 32492
L41934 32516
L41908 32564
L41908 32659
L41934 32707
L41960 32730
L42013 32754
" />
</g>
<g style="fill:#000000; fill-opacity:0.0; 
stroke:#000000; stroke-width:120; stroke-opacity:1; 
stroke-linecap:round; stroke-linejoin:round;">
<path d="M47783 13666
L47783 12966
L48050 12966
L48116 13000
L48150 13033
L48183 13100
L48183 13200
L48150 13266
L48116 13300
L48050 13333
L47783 13333
" />
<path d="M48850 13666
L48450 13666
" />
<path d="M48650 13666
L48650 12966
L48583 13066
L48516 13133
L48450 13166
" />
<path d="M53350 18400
L53316 18433
L53216 18466
L53150 18466
L53050 18433
L52983 18366
L52950 18300
L52916 18166
L52916 18066
L52950 17933
L52983 17866
L53050 17800
L53150 17766
L53216 17766
L53316 17800
L53350 17833
" />
<path d="M53783 17766
L53916 17766
L53983 17800
L54050 17866
L54083 18000
L54083 18233
L54050 18366
L53983 18433
L53916 18466
L53783 18466
L53716 18433
L53650 18366
L53616 18233
L53616 18000
L53650 17866
L53716 17800
L53783 17766
" />
<path d="M54383 18466
L54383 17766
L54783 18466
L54783 17766
" />
<path d="M55116 18466
L55116 17766
L55516 18466
L55516 17766
" />
<path d="M55683 18533
L56216 18533
" />
<path d="M56483 18066
L56416 18033
L56383 18000
L56350 17933
L56350 17900
L56383 17833
L56416 17800
L56483 17766
L56616 17766
L56683 17800
L56716 17833
L56750 17900
L56750 17933
L56716 18000
L56683 18033
L56616 18066
L56483 18066
L56416 18100
L56383 18133
L56350 18200
L56350 18333
L56383 18400
L56416 18433
L56483 18466
L56616 18466
L56683 18433
L56716 18400
L56750 18333
L56750 18200
L56716 18133
L56683 18100
L56616 18066
" />
<path d="M56983 17766
L57450 18466
" />
<path d="M57450 17766
L56983 18466
" />
<path d="M57683 17833
L57716 17800
L57783 17766
L57950 17766
L58016 17800
L58050 17833
L58083 17900
L58083 17966
L58050 18066
L57650 18466
L58083 18466
" />
<path d="M49983 43066
L49983 42366
L50250 42366
L50316 42400
L50350 42433
L50383 42500
L50383 42600
L50350 42666
L50316 42700
L50250 42733
L49983 42733
" />
<path d="M50650 42433
L50683 42400
L50750 42366
L50916 42366
L50983 42400
L51016 42433
L51050 42500
L51050 42566
L51016 42666
L50616 43066
L51050 43066
" />
<path d="M47850 44500
L47816 44533
L47716 44566
L47650 44566
L47550 44533
L47483 44466
L47450 44400
L47416 44266
L47416 44166
L47450 44033
L47483 43966
L47550 43900
L47650 43866
L47716 43866
L47816 43900
L47850 43933
" />
<path d="M48283 43866
L48416 43866
L48483 43900
L48550 43966
L48583 44100
L48583 44333
L48550 44466
L48483 44533
L48416 44566
L48283 44566
L48216 44533
L48150 44466
L48116 44333
L48116 44100
L48150 43966
L48216 43900
L48283 43866
" />
<path d="M48883 44566
L48883 43866
L49283 44566
L49283 43866
" />
<path d="M49616 44566
L49616 43866
L50016 44566
L50016 43866
" />
<path d="M50183 44633
L50716 44633
" />
<path d="M50983 44166
L50916 44133
L50883 44100
L50850 44033
L50850 44000
L50883 43933
L50916 43900
L50983 43866
L51116 43866
L51183 43900
L51216 43933
L51250 44000
L51250 44033
L51216 44100
L51183 44133
L51116 44166
L50983 44166
L50916 44200
L50883 44233
L50850 44300
L50850 44433
L50883 44500
L50916 44533
L50983 44566
L51116 44566
L51183 44533
L51216 44500
L51250 44433
L51250 44300
L51216 44233
L51183 44200
L51116 44166
" />
<path d="M51483 43866
L51950 44566
" />
<path d="M51950 43866
L51483 44566
" />
<path d="M52183 43933
L52216 43900
L52283 43866
L52450 43866
L52516 43900
L52550 43933
L52583 44000
L52583 44066
L52550 44166
L52150 44566
L52583 44566
" />
</g>
<g style="fill:#000000; fill-opacity:0.0; 
stroke:#000000; stroke-width:80; stroke-opacity:1; 
stroke-linecap:round; stroke-linejoin:round;">
<path d="M47869 35248
L47583 35248
" />
<path d="M47726 35248
L47726 34698
L47678 34777
L47630 34829
L47583 34855
" />
<path d="M48178 34698
L48226 34698
L48273 34725
L48297 34751
L48321 34803
L48345 34908
L48345 35039
L48321 35144
L48297 35196
L48273 35222
L48226 35248
L48178 35248
L48130 35222
L48107 35196
L48083 35144
L48059 35039
L48059 34908
L48083 34803
L48107 34751
L48130 34725
L48178 34698
" />
<path d="M48559 35248
L48559 34698
L48726 35091
L48892 34698
L48892 35248
" />
</g> 
</svg>
